<?xml version="1.0" encoding="UTF-8"?><svg xmlns="http://www.w3.org/2000/svg" xmlns:xlink="http://www.w3.org/1999/xlink" contentScriptType="text/ecmascript" width="5184pt" zoomAndPan="magnify" contentStyleType="text/css" viewBox="0 0 5184 863.999991" height="863.999991pt" preserveAspectRatio="xMidYMid meet" version="1.2"><defs><g/></defs><g xml:id="surface1" id="surface1"><g style="fill:rgb(100%,0%,100%);fill-opacity:1;"><g transform="translate(300.284264, 509.011332)"><path style="stroke:none;" d="M 105.09375 0 L 80.453125 0 L 80.453125 -67.953125 L 30.46875 -67.953125 L 30.46875 0 L 5.828125 0 L 5.828125 -155.3125 L 30.46875 -155.3125 L 30.46875 -90.21875 L 80.453125 -90.21875 L 80.453125 -155.3125 L 105.09375 -155.3125 Z M 105.09375 0 "/></g></g><g style="fill:rgb(100%,0%,100%);fill-opacity:1;"><g transform="translate(444.807344, 509.011332)"><path style="stroke:none;" d="M 22.609375 -46.0625 C 23.804688 -38.445312 27.4375 -32.117188 33.5 -27.078125 C 39.570312 -22.035156 47.726562 -19.515625 57.96875 -19.515625 C 65.976562 -19.515625 72.9375 -20.765625 78.84375 -23.265625 C 84.757812 -25.765625 89.859375 -29.078125 94.140625 -33.203125 L 106.765625 -15.828125 C 99.617188 -8.691406 92.054688 -3.8125 84.078125 -1.1875 C 76.109375 1.425781 67.40625 2.734375 57.96875 2.734375 C 49.394531 2.734375 41.414062 1.304688 34.03125 -1.546875 C 26.65625 -4.398438 20.269531 -8.382812 14.875 -13.5 C 9.476562 -18.625 5.253906 -24.71875 2.203125 -31.78125 C -0.847656 -38.84375 -2.375 -46.695312 -2.375 -55.34375 C -2.375 -63.75 -0.96875 -71.503906 1.84375 -78.609375 C 4.65625 -85.710938 8.617188 -91.863281 13.734375 -97.0625 C 18.859375 -102.257812 24.988281 -106.304688 32.125 -109.203125 C 39.269531 -112.097656 47.164062 -113.546875 55.8125 -113.546875 C 64.78125 -113.546875 72.914062 -112.015625 80.21875 -108.953125 C 87.519531 -105.898438 93.769531 -101.476562 98.96875 -95.6875 C 104.164062 -89.894531 108.226562 -82.8125 111.15625 -74.4375 C 114.09375 -66.070312 115.5625 -56.613281 115.5625 -46.0625 Z M 87.71875 -67.71875 C 86.445312 -74.863281 82.753906 -80.597656 76.640625 -84.921875 C 70.535156 -89.242188 63.59375 -91.40625 55.8125 -91.40625 C 48.039062 -91.40625 41.0625 -89.242188 34.875 -84.921875 C 28.6875 -80.597656 24.957031 -74.863281 23.6875 -67.71875 Z M 87.71875 -67.71875 "/></g></g><g style="fill:rgb(100%,0%,100%);fill-opacity:1;"><g transform="translate(589.330424, 509.011332)"><path style="stroke:none;" d="M 93.3125 0 L 18.8125 0 L 18.8125 -22.140625 L 43.078125 -22.140625 L 43.078125 -133.0625 L 18.8125 -133.0625 L 18.8125 -155.3125 L 67.71875 -155.3125 L 67.71875 -22.140625 L 93.3125 -22.140625 Z M 93.3125 0 "/></g></g><g style="fill:rgb(100%,0%,100%);fill-opacity:1;"><g transform="translate(733.853524, 509.011332)"><path style="stroke:none;" d="M 93.3125 0 L 18.8125 0 L 18.8125 -22.140625 L 43.078125 -22.140625 L 43.078125 -133.0625 L 18.8125 -133.0625 L 18.8125 -155.3125 L 67.71875 -155.3125 L 67.71875 -22.140625 L 93.3125 -22.140625 Z M 93.3125 0 "/></g></g><g style="fill:rgb(100%,0%,100%);fill-opacity:1;"><g transform="translate(878.376583, 509.011332)"><path style="stroke:none;" d="M 113.78125 -55.34375 C 113.78125 -46.695312 112.410156 -38.84375 109.671875 -31.78125 C 106.929688 -24.71875 103.003906 -18.625 97.890625 -13.5 C 92.773438 -8.382812 86.644531 -4.398438 79.5 -1.546875 C 72.363281 1.304688 64.390625 2.734375 55.578125 2.734375 C 46.929688 2.734375 39.035156 1.304688 31.890625 -1.546875 C 24.753906 -4.398438 18.625 -8.382812 13.5 -13.5 C 8.382812 -18.625 4.457031 -24.71875 1.71875 -31.78125 C -1.007812 -38.84375 -2.375 -46.695312 -2.375 -55.34375 C -2.375 -63.75 -1.007812 -71.539062 1.71875 -78.71875 C 4.457031 -85.90625 8.382812 -92.097656 13.5 -97.296875 C 18.625 -102.492188 24.753906 -106.5 31.890625 -109.3125 C 39.035156 -112.132812 46.929688 -113.546875 55.578125 -113.546875 C 64.390625 -113.546875 72.363281 -112.132812 79.5 -109.3125 C 86.644531 -106.5 92.773438 -102.492188 97.890625 -97.296875 C 103.003906 -92.097656 106.929688 -85.90625 109.671875 -78.71875 C 112.410156 -71.539062 113.78125 -63.75 113.78125 -55.34375 Z M 89.265625 -55.34375 C 89.265625 -60.34375 88.488281 -65.082031 86.9375 -69.5625 C 85.394531 -74.050781 83.15625 -77.878906 80.21875 -81.046875 C 77.28125 -84.222656 73.726562 -86.742188 69.5625 -88.609375 C 65.394531 -90.472656 60.734375 -91.40625 55.578125 -91.40625 C 50.335938 -91.40625 45.65625 -90.472656 41.53125 -88.609375 C 37.40625 -86.742188 33.914062 -84.222656 31.0625 -81.046875 C 28.207031 -77.878906 26.003906 -74.050781 24.453125 -69.5625 C 22.910156 -65.082031 22.140625 -60.34375 22.140625 -55.34375 C 22.140625 -50.101562 22.910156 -45.34375 24.453125 -41.0625 C 26.003906 -36.78125 28.207031 -33.007812 31.0625 -29.75 C 33.914062 -26.5 37.40625 -23.976562 41.53125 -22.1875 C 45.65625 -20.40625 50.335938 -19.515625 55.578125 -19.515625 C 60.734375 -19.515625 65.394531 -20.40625 69.5625 -22.1875 C 73.726562 -23.976562 77.28125 -26.5 80.21875 -29.75 C 83.15625 -33.007812 85.394531 -36.78125 86.9375 -41.0625 C 88.488281 -45.34375 89.265625 -50.101562 89.265625 -55.34375 Z M 89.265625 -55.34375 "/></g></g><g style="fill:rgb(100%,0%,100%);fill-opacity:1;"><g transform="translate(1022.899642, 509.011332)"><path style="stroke:none;" d="M 76.296875 -22.25 L 43.6875 44.28125 L 24.875 44.28125 L 47.015625 -22.25 Z M 76.296875 -22.25 "/></g></g><g style="fill:rgb(100%,0%,100%);fill-opacity:1;"><g transform="translate(1167.422702, 509.011332)"><path style="stroke:none;" d=""/></g></g><g style="fill:rgb(100%,0%,100%);fill-opacity:1;"><g transform="translate(1311.945761, 509.011332)"><path style="stroke:none;" d="M 116.046875 -77.71875 C 116.046875 -67.320312 114.953125 -57.421875 112.765625 -48.015625 C 110.585938 -38.617188 107.097656 -30.367188 102.296875 -23.265625 C 97.492188 -16.160156 91.300781 -10.503906 83.71875 -6.296875 C 76.144531 -2.097656 67.003906 0 56.296875 0 L 5.828125 0 L 5.828125 -155.3125 L 56.296875 -155.3125 C 66.847656 -155.3125 75.910156 -153.1875 83.484375 -148.9375 C 91.066406 -144.695312 97.257812 -139.046875 102.0625 -131.984375 C 106.863281 -124.929688 110.394531 -116.722656 112.65625 -107.359375 C 114.914062 -97.992188 116.046875 -88.113281 116.046875 -77.71875 Z M 91.40625 -77.71875 C 91.40625 -95.65625 88.347656 -109.363281 82.234375 -118.84375 C 76.128906 -128.320312 67.484375 -133.0625 56.296875 -133.0625 L 30.46875 -133.0625 L 30.46875 -22.140625 L 56.296875 -22.140625 C 67.484375 -22.140625 76.128906 -26.976562 82.234375 -36.65625 C 88.347656 -46.332031 91.40625 -60.019531 91.40625 -77.71875 Z M 91.40625 -77.71875 "/></g></g><g style="fill:rgb(100%,0%,100%);fill-opacity:1;"><g transform="translate(1456.468821, 509.011332)"><path style="stroke:none;" d="M 22.609375 -46.0625 C 23.804688 -38.445312 27.4375 -32.117188 33.5 -27.078125 C 39.570312 -22.035156 47.726562 -19.515625 57.96875 -19.515625 C 65.976562 -19.515625 72.9375 -20.765625 78.84375 -23.265625 C 84.757812 -25.765625 89.859375 -29.078125 94.140625 -33.203125 L 106.765625 -15.828125 C 99.617188 -8.691406 92.054688 -3.8125 84.078125 -1.1875 C 76.109375 1.425781 67.40625 2.734375 57.96875 2.734375 C 49.394531 2.734375 41.414062 1.304688 34.03125 -1.546875 C 26.65625 -4.398438 20.269531 -8.382812 14.875 -13.5 C 9.476562 -18.625 5.253906 -24.71875 2.203125 -31.78125 C -0.847656 -38.84375 -2.375 -46.695312 -2.375 -55.34375 C -2.375 -63.75 -0.96875 -71.503906 1.84375 -78.609375 C 4.65625 -85.710938 8.617188 -91.863281 13.734375 -97.0625 C 18.859375 -102.257812 24.988281 -106.304688 32.125 -109.203125 C 39.269531 -112.097656 47.164062 -113.546875 55.8125 -113.546875 C 64.78125 -113.546875 72.914062 -112.015625 80.21875 -108.953125 C 87.519531 -105.898438 93.769531 -101.476562 98.96875 -95.6875 C 104.164062 -89.894531 108.226562 -82.8125 111.15625 -74.4375 C 114.09375 -66.070312 115.5625 -56.613281 115.5625 -46.0625 Z M 87.71875 -67.71875 C 86.445312 -74.863281 82.753906 -80.597656 76.640625 -84.921875 C 70.535156 -89.242188 63.59375 -91.40625 55.8125 -91.40625 C 48.039062 -91.40625 41.0625 -89.242188 34.875 -84.921875 C 28.6875 -80.597656 24.957031 -74.863281 23.6875 -67.71875 Z M 87.71875 -67.71875 "/></g></g><g style="fill:rgb(100%,0%,100%);fill-opacity:1;"><g transform="translate(1600.99188, 509.011332)"><path style="stroke:none;" d="M 110.921875 -110.921875 L 69.984375 0 L 40.9375 0 L 0 -110.921875 L 26.296875 -110.921875 L 55.578125 -27.015625 L 84.625 -110.921875 Z M 110.921875 -110.921875 "/></g></g><g style="fill:rgb(100%,0%,100%);fill-opacity:1;"><g transform="translate(1745.51502, 509.011332)"><path style="stroke:none;" d="M 22.609375 -46.0625 C 23.804688 -38.445312 27.4375 -32.117188 33.5 -27.078125 C 39.570312 -22.035156 47.726562 -19.515625 57.96875 -19.515625 C 65.976562 -19.515625 72.9375 -20.765625 78.84375 -23.265625 C 84.757812 -25.765625 89.859375 -29.078125 94.140625 -33.203125 L 106.765625 -15.828125 C 99.617188 -8.691406 92.054688 -3.8125 84.078125 -1.1875 C 76.109375 1.425781 67.40625 2.734375 57.96875 2.734375 C 49.394531 2.734375 41.414062 1.304688 34.03125 -1.546875 C 26.65625 -4.398438 20.269531 -8.382812 14.875 -13.5 C 9.476562 -18.625 5.253906 -24.71875 2.203125 -31.78125 C -0.847656 -38.84375 -2.375 -46.695312 -2.375 -55.34375 C -2.375 -63.75 -0.96875 -71.503906 1.84375 -78.609375 C 4.65625 -85.710938 8.617188 -91.863281 13.734375 -97.0625 C 18.859375 -102.257812 24.988281 -106.304688 32.125 -109.203125 C 39.269531 -112.097656 47.164062 -113.546875 55.8125 -113.546875 C 64.78125 -113.546875 72.914062 -112.015625 80.21875 -108.953125 C 87.519531 -105.898438 93.769531 -101.476562 98.96875 -95.6875 C 104.164062 -89.894531 108.226562 -82.8125 111.15625 -74.4375 C 114.09375 -66.070312 115.5625 -56.613281 115.5625 -46.0625 Z M 87.71875 -67.71875 C 86.445312 -74.863281 82.753906 -80.597656 76.640625 -84.921875 C 70.535156 -89.242188 63.59375 -91.40625 55.8125 -91.40625 C 48.039062 -91.40625 41.0625 -89.242188 34.875 -84.921875 C 28.6875 -80.597656 24.957031 -74.863281 23.6875 -67.71875 Z M 87.71875 -67.71875 "/></g></g><g style="fill:rgb(100%,0%,100%);fill-opacity:1;"><g transform="translate(1890.03808, 509.011332)"><path style="stroke:none;" d="M 93.3125 0 L 18.8125 0 L 18.8125 -22.140625 L 43.078125 -22.140625 L 43.078125 -133.0625 L 18.8125 -133.0625 L 18.8125 -155.3125 L 67.71875 -155.3125 L 67.71875 -22.140625 L 93.3125 -22.140625 Z M 93.3125 0 "/></g></g><g style="fill:rgb(100%,0%,100%);fill-opacity:1;"><g transform="translate(2034.561139, 509.011332)"><path style="stroke:none;" d="M 113.78125 -55.34375 C 113.78125 -46.695312 112.410156 -38.84375 109.671875 -31.78125 C 106.929688 -24.71875 103.003906 -18.625 97.890625 -13.5 C 92.773438 -8.382812 86.644531 -4.398438 79.5 -1.546875 C 72.363281 1.304688 64.390625 2.734375 55.578125 2.734375 C 46.929688 2.734375 39.035156 1.304688 31.890625 -1.546875 C 24.753906 -4.398438 18.625 -8.382812 13.5 -13.5 C 8.382812 -18.625 4.457031 -24.71875 1.71875 -31.78125 C -1.007812 -38.84375 -2.375 -46.695312 -2.375 -55.34375 C -2.375 -63.75 -1.007812 -71.539062 1.71875 -78.71875 C 4.457031 -85.90625 8.382812 -92.097656 13.5 -97.296875 C 18.625 -102.492188 24.753906 -106.5 31.890625 -109.3125 C 39.035156 -112.132812 46.929688 -113.546875 55.578125 -113.546875 C 64.390625 -113.546875 72.363281 -112.132812 79.5 -109.3125 C 86.644531 -106.5 92.773438 -102.492188 97.890625 -97.296875 C 103.003906 -92.097656 106.929688 -85.90625 109.671875 -78.71875 C 112.410156 -71.539062 113.78125 -63.75 113.78125 -55.34375 Z M 89.265625 -55.34375 C 89.265625 -60.34375 88.488281 -65.082031 86.9375 -69.5625 C 85.394531 -74.050781 83.15625 -77.878906 80.21875 -81.046875 C 77.28125 -84.222656 73.726562 -86.742188 69.5625 -88.609375 C 65.394531 -90.472656 60.734375 -91.40625 55.578125 -91.40625 C 50.335938 -91.40625 45.65625 -90.472656 41.53125 -88.609375 C 37.40625 -86.742188 33.914062 -84.222656 31.0625 -81.046875 C 28.207031 -77.878906 26.003906 -74.050781 24.453125 -69.5625 C 22.910156 -65.082031 22.140625 -60.34375 22.140625 -55.34375 C 22.140625 -50.101562 22.910156 -45.34375 24.453125 -41.0625 C 26.003906 -36.78125 28.207031 -33.007812 31.0625 -29.75 C 33.914062 -26.5 37.40625 -23.976562 41.53125 -22.1875 C 45.65625 -20.40625 50.335938 -19.515625 55.578125 -19.515625 C 60.734375 -19.515625 65.394531 -20.40625 69.5625 -22.1875 C 73.726562 -23.976562 77.28125 -26.5 80.21875 -29.75 C 83.15625 -33.007812 85.394531 -36.78125 86.9375 -41.0625 C 88.488281 -45.34375 89.265625 -50.101562 89.265625 -55.34375 Z M 89.265625 -55.34375 "/></g></g><g style="fill:rgb(100%,0%,100%);fill-opacity:1;"><g transform="translate(2179.084199, 509.011332)"><path style="stroke:none;" d="M 5.828125 -110.921875 L 30.46875 -110.921875 L 30.46875 -100.921875 C 35.144531 -105.128906 39.882812 -108.285156 44.6875 -110.390625 C 49.488281 -112.492188 54.984375 -113.546875 61.171875 -113.546875 C 68.316406 -113.546875 74.941406 -112.097656 81.046875 -109.203125 C 87.160156 -106.304688 92.398438 -102.296875 96.765625 -97.171875 C 101.128906 -92.054688 104.578125 -85.90625 107.109375 -78.71875 C 109.648438 -71.539062 110.921875 -63.75 110.921875 -55.34375 C 110.921875 -46.851562 109.648438 -39.035156 107.109375 -31.890625 C 104.578125 -24.753906 101.128906 -18.625 96.765625 -13.5 C 92.398438 -8.382812 87.160156 -4.398438 81.046875 -1.546875 C 74.941406 1.304688 68.316406 2.734375 61.171875 2.734375 C 54.984375 2.734375 49.488281 1.625 44.6875 -0.59375 C 39.882812 -2.8125 35.144531 -6.023438 30.46875 -10.234375 L 30.46875 44.390625 L 5.828125 44.390625 Z M 30.46875 -29.75 C 33.40625 -26.5 37.15625 -23.976562 41.71875 -22.1875 C 46.28125 -20.40625 50.664062 -19.515625 54.875 -19.515625 C 64.15625 -19.515625 71.707031 -22.804688 77.53125 -29.390625 C 83.363281 -35.984375 86.28125 -44.632812 86.28125 -55.34375 C 86.28125 -66.050781 83.363281 -74.738281 77.53125 -81.40625 C 71.707031 -88.070312 64.15625 -91.40625 54.875 -91.40625 C 50.664062 -91.40625 46.28125 -90.550781 41.71875 -88.84375 C 37.15625 -87.132812 33.40625 -84.65625 30.46875 -81.40625 Z M 30.46875 -29.75 "/></g></g><g style="fill:rgb(100%,0%,100%);fill-opacity:1;"><g transform="translate(2323.607258, 509.011332)"><path style="stroke:none;" d="M 22.609375 -46.0625 C 23.804688 -38.445312 27.4375 -32.117188 33.5 -27.078125 C 39.570312 -22.035156 47.726562 -19.515625 57.96875 -19.515625 C 65.976562 -19.515625 72.9375 -20.765625 78.84375 -23.265625 C 84.757812 -25.765625 89.859375 -29.078125 94.140625 -33.203125 L 106.765625 -15.828125 C 99.617188 -8.691406 92.054688 -3.8125 84.078125 -1.1875 C 76.109375 1.425781 67.40625 2.734375 57.96875 2.734375 C 49.394531 2.734375 41.414062 1.304688 34.03125 -1.546875 C 26.65625 -4.398438 20.269531 -8.382812 14.875 -13.5 C 9.476562 -18.625 5.253906 -24.71875 2.203125 -31.78125 C -0.847656 -38.84375 -2.375 -46.695312 -2.375 -55.34375 C -2.375 -63.75 -0.96875 -71.503906 1.84375 -78.609375 C 4.65625 -85.710938 8.617188 -91.863281 13.734375 -97.0625 C 18.859375 -102.257812 24.988281 -106.304688 32.125 -109.203125 C 39.269531 -112.097656 47.164062 -113.546875 55.8125 -113.546875 C 64.78125 -113.546875 72.914062 -112.015625 80.21875 -108.953125 C 87.519531 -105.898438 93.769531 -101.476562 98.96875 -95.6875 C 104.164062 -89.894531 108.226562 -82.8125 111.15625 -74.4375 C 114.09375 -66.070312 115.5625 -56.613281 115.5625 -46.0625 Z M 87.71875 -67.71875 C 86.445312 -74.863281 82.753906 -80.597656 76.640625 -84.921875 C 70.535156 -89.242188 63.59375 -91.40625 55.8125 -91.40625 C 48.039062 -91.40625 41.0625 -89.242188 34.875 -84.921875 C 28.6875 -80.597656 24.957031 -74.863281 23.6875 -67.71875 Z M 87.71875 -67.71875 "/></g></g><g style="fill:rgb(100%,0%,100%);fill-opacity:1;"><g transform="translate(2468.130317, 509.011332)"><path style="stroke:none;" d="M 108.1875 -84.625 C 105.25 -86.050781 102.253906 -87.140625 99.203125 -87.890625 C 96.148438 -88.648438 92.640625 -89.03125 88.671875 -89.03125 C 83.191406 -89.03125 78.050781 -88.210938 73.25 -86.578125 C 68.457031 -84.953125 64.3125 -82.515625 60.8125 -79.265625 C 57.320312 -76.015625 54.601562 -71.945312 52.65625 -67.0625 C 50.71875 -62.1875 49.75 -56.414062 49.75 -49.75 L 49.75 -22.140625 L 74.625 -22.140625 L 74.625 0 L 0 0 L 0 -22.140625 L 25.109375 -22.140625 L 25.109375 -88.671875 L 0 -88.671875 L 0 -110.921875 L 49.75 -110.921875 L 49.75 -83.078125 C 53.789062 -94.179688 59.757812 -102.035156 67.65625 -106.640625 C 75.550781 -111.242188 84.9375 -113.546875 95.8125 -113.546875 C 99.21875 -113.546875 102.785156 -113.1875 106.515625 -112.46875 C 110.242188 -111.757812 113.894531 -110.488281 117.46875 -108.65625 Z M 108.1875 -84.625 "/></g></g><g style="fill:rgb(100%,0%,100%);fill-opacity:1;"><g transform="translate(2612.653377, 509.011332)"><path style="stroke:none;" d="M 107.953125 -33.203125 C 107.953125 -25.984375 106.320312 -20.113281 103.0625 -15.59375 C 99.8125 -11.070312 95.628906 -7.421875 90.515625 -4.640625 C 85.398438 -1.859375 79.6875 0.0625 73.375 1.125 C 67.0625 2.195312 60.894531 2.734375 54.875 2.734375 C 44.789062 2.734375 34.75 1.269531 24.75 -1.65625 C 14.757812 -4.59375 6.113281 -8.445312 -1.1875 -13.21875 L 9.046875 -33.4375 C 17.773438 -28.363281 25.769531 -24.773438 33.03125 -22.671875 C 40.289062 -20.566406 47.570312 -19.515625 54.875 -19.515625 C 64.789062 -19.515625 72.007812 -20.566406 76.53125 -22.671875 C 81.050781 -24.773438 83.3125 -27.691406 83.3125 -31.421875 C 83.3125 -33.242188 82.675781 -34.75 81.40625 -35.9375 C 80.132812 -37.132812 78.03125 -38.226562 75.09375 -39.21875 C 72.164062 -40.207031 68.300781 -41.195312 63.5 -42.1875 C 58.695312 -43.1875 52.722656 -44.238281 45.578125 -45.34375 C 39.867188 -46.300781 34.453125 -47.472656 29.328125 -48.859375 C 24.210938 -50.242188 19.710938 -52.207031 15.828125 -54.75 C 11.941406 -57.289062 8.828125 -60.503906 6.484375 -64.390625 C 4.140625 -68.273438 2.96875 -73.15625 2.96875 -79.03125 C 2.96875 -84.976562 4.492188 -90.15625 7.546875 -94.5625 C 10.609375 -98.96875 14.617188 -102.597656 19.578125 -105.453125 C 24.535156 -108.304688 30.109375 -110.367188 36.296875 -111.640625 C 42.484375 -112.910156 48.675781 -113.546875 54.875 -113.546875 C 63.59375 -113.546875 72.054688 -112.414062 80.265625 -110.15625 C 88.484375 -107.894531 95.6875 -104.660156 101.875 -100.453125 L 92.125 -81.40625 C 85.9375 -85.289062 79.925781 -87.925781 74.09375 -89.3125 C 68.257812 -90.707031 61.851562 -91.40625 54.875 -91.40625 C 51.9375 -91.40625 48.878906 -91.242188 45.703125 -90.921875 C 42.523438 -90.609375 39.585938 -89.992188 36.890625 -89.078125 C 34.191406 -88.171875 31.953125 -86.941406 30.171875 -85.390625 C 28.390625 -83.847656 27.5 -81.96875 27.5 -79.75 C 27.5 -76.8125 30.09375 -74.410156 35.28125 -72.546875 C 40.476562 -70.679688 49.347656 -68.832031 61.890625 -67 C 68.710938 -66.050781 74.941406 -64.84375 80.578125 -63.375 C 86.210938 -61.90625 91.050781 -59.921875 95.09375 -57.421875 C 99.144531 -54.921875 102.300781 -51.707031 104.5625 -47.78125 C 106.820312 -43.851562 107.953125 -38.992188 107.953125 -33.203125 Z M 107.953125 -33.203125 "/></g></g><g style="fill:rgb(100%,0%,100%);fill-opacity:1;"><g transform="translate(2757.176436, 509.011332)"><path style="stroke:none;" d="M 71.65625 -155.3125 L 65.578125 -44.390625 L 45.34375 -44.390625 L 39.28125 -155.3125 Z M 70.453125 0 L 40.46875 0 L 40.46875 -30 L 70.453125 -30 Z M 70.453125 0 "/></g></g><g style="fill:rgb(100%,0%,100%);fill-opacity:1;"><g transform="translate(2901.699496, 509.011332)"><path style="stroke:none;" d=""/></g></g><g style="fill:rgb(100%,0%,100%);fill-opacity:1;"><g transform="translate(3046.222555, 509.011332)"><path style="stroke:none;" d="M 93.078125 0 L 18.5625 0 L 18.5625 -22.140625 L 43.078125 -22.140625 L 43.078125 -133.0625 L 18.5625 -133.0625 L 18.5625 -155.3125 L 93.078125 -155.3125 L 93.078125 -133.0625 L 67.71875 -133.0625 L 67.71875 -22.140625 L 93.078125 -22.140625 Z M 93.078125 0 "/></g></g><g style="fill:rgb(100%,0%,100%);fill-opacity:1;"><g transform="translate(3190.745777, 509.011332)"><path style="stroke:none;" d="M 70.21875 -155.3125 L 64.859375 -95.8125 L 46.0625 -95.8125 L 40.703125 -155.3125 Z M 70.21875 -155.3125 "/></g></g><g style="fill:rgb(100%,0%,100%);fill-opacity:1;"><g transform="translate(3335.268836, 509.011332)"><path style="stroke:none;" d="M 110.921875 0 L 86.28125 0 L 86.28125 -76.046875 C 86.28125 -81.285156 85.742188 -85.15625 84.671875 -87.65625 C 83.609375 -90.15625 81.726562 -91.40625 79.03125 -91.40625 C 74.113281 -91.40625 71 -88.644531 69.6875 -83.125 C 68.375 -77.613281 67.71875 -69.582031 67.71875 -59.03125 L 67.71875 0 L 43.078125 0 L 43.078125 -76.046875 C 43.078125 -81.285156 42.519531 -85.15625 41.40625 -87.65625 C 40.300781 -90.15625 38.363281 -91.40625 35.59375 -91.40625 C 30.75 -91.40625 27.710938 -88.644531 26.484375 -83.125 C 25.253906 -77.613281 24.640625 -69.582031 24.640625 -59.03125 L 24.640625 0 L 0 0 L 0 -110.921875 L 24.875 -110.921875 L 24.875 -94.859375 C 26.625 -100.960938 29.203125 -105.601562 32.609375 -108.78125 C 36.023438 -111.957031 40.585938 -113.546875 46.296875 -113.546875 C 51.054688 -113.546875 55.039062 -112.097656 58.25 -109.203125 C 61.46875 -106.304688 63.671875 -102.316406 64.859375 -97.234375 C 67.640625 -102.785156 70.515625 -106.890625 73.484375 -109.546875 C 76.460938 -112.210938 81.046875 -113.546875 87.234375 -113.546875 C 94.859375 -113.546875 100.710938 -110.75 104.796875 -105.15625 C 108.878906 -99.5625 110.921875 -91.09375 110.921875 -79.75 Z M 110.921875 0 "/></g></g><g style="fill:rgb(100%,0%,100%);fill-opacity:1;"><g transform="translate(3479.791895, 509.011332)"><path style="stroke:none;" d=""/></g></g><g style="fill:rgb(100%,0%,100%);fill-opacity:1;"><g transform="translate(3624.314955, 509.011332)"><path style="stroke:none;" d="M 105.09375 0 L 80.453125 0 L 80.453125 -105.09375 L 64.859375 -49.28125 L 45.828125 -49.28125 L 30.46875 -105.09375 L 30.46875 0 L 5.828125 0 L 5.828125 -155.3125 L 35.109375 -155.3125 L 55.34375 -85.09375 L 75.578125 -155.3125 L 105.09375 -155.3125 Z M 105.09375 0 "/></g></g><g style="fill:rgb(100%,0%,100%);fill-opacity:1;"><g transform="translate(3768.838014, 509.011332)"><path style="stroke:none;" d="M 5.828125 -110.921875 L 30.46875 -110.921875 L 30.46875 -42.375 C 30.46875 -33.800781 32.09375 -27.847656 35.34375 -24.515625 C 38.601562 -21.179688 43.328125 -19.515625 49.515625 -19.515625 C 58.554688 -19.515625 65.972656 -23.203125 71.765625 -30.578125 C 77.554688 -37.960938 80.453125 -48.160156 80.453125 -61.171875 L 80.453125 -110.921875 L 105.09375 -110.921875 L 105.09375 0 L 80.453125 0 L 80.453125 -27.734375 C 77.992188 -18.210938 73.429688 -10.753906 66.765625 -5.359375 C 60.097656 0.0351562 51.882812 2.734375 42.125 2.734375 C 30.78125 2.734375 21.894531 -0.972656 15.46875 -8.390625 C 9.039062 -15.804688 5.828125 -27.132812 5.828125 -42.375 Z M 5.828125 -110.921875 "/></g></g><g style="fill:rgb(100%,0%,100%);fill-opacity:1;"><g transform="translate(3913.361073, 509.011332)"><path style="stroke:none;" d="M 105.09375 0 L 5.828125 0 L 5.828125 -21.90625 L 69.03125 -88.671875 L 27.5 -88.671875 L 27.5 -66.296875 L 5.828125 -66.296875 L 5.828125 -110.921875 L 102.828125 -110.921875 L 102.828125 -88.671875 L 39.515625 -22.140625 L 83.3125 -22.140625 L 83.3125 -44.15625 L 105.09375 -44.15625 Z M 105.09375 0 "/></g></g><g style="fill:rgb(100%,0%,100%);fill-opacity:1;"><g transform="translate(4057.884133, 509.011332)"><path style="stroke:none;" d="M -0.46875 -31.890625 C -0.46875 -38.398438 1.273438 -44.09375 4.765625 -48.96875 C 8.253906 -53.851562 12.832031 -57.921875 18.5 -61.171875 C 24.175781 -64.429688 30.679688 -66.875 38.015625 -68.5 C 45.359375 -70.125 52.84375 -70.9375 60.46875 -70.9375 C 64.664062 -70.9375 68.269531 -70.851562 71.28125 -70.6875 C 74.300781 -70.53125 77.359375 -70.296875 80.453125 -69.984375 L 80.453125 -74.390625 C 80.453125 -80.179688 78.207031 -84.503906 73.71875 -87.359375 C 69.238281 -90.210938 63.351562 -91.640625 56.0625 -91.640625 C 49.394531 -91.640625 42.609375 -90.707031 35.703125 -88.84375 C 28.796875 -86.976562 22.25 -84.257812 16.0625 -80.6875 L 6.0625 -99.96875 C 13.363281 -104.175781 21.195312 -107.488281 29.5625 -109.90625 C 37.9375 -112.332031 46.769531 -113.546875 56.0625 -113.546875 C 62.09375 -113.546875 68.019531 -112.867188 73.84375 -111.515625 C 79.675781 -110.171875 84.914062 -107.953125 89.5625 -104.859375 C 94.207031 -101.765625 97.914062 -97.738281 100.6875 -92.78125 C 103.46875 -87.820312 104.859375 -81.691406 104.859375 -74.390625 L 104.859375 0 L 80.453125 0 L 80.453125 -16.3125 C 76.566406 -10.28125 70.832031 -5.597656 63.25 -2.265625 C 55.675781 1.066406 47.523438 2.734375 38.796875 2.734375 C 33.398438 2.734375 28.300781 2 23.5 0.53125 C 18.707031 -0.9375 14.5625 -3.132812 11.0625 -6.0625 C 7.570312 -9 4.773438 -12.628906 2.671875 -16.953125 C 0.578125 -21.285156 -0.46875 -26.265625 -0.46875 -31.890625 Z M 45.109375 -19.28125 C 49.953125 -19.28125 54.492188 -19.894531 58.734375 -21.125 C 62.984375 -22.351562 66.734375 -24.054688 69.984375 -26.234375 C 73.234375 -28.421875 75.789062 -31.0625 77.65625 -34.15625 C 79.519531 -37.25 80.453125 -40.660156 80.453125 -44.390625 L 80.453125 -48.5625 C 76.566406 -49.195312 72.914062 -49.550781 69.5 -49.625 C 66.09375 -49.707031 63.082031 -49.75 60.46875 -49.75 C 48.40625 -49.75 39.296875 -48.160156 33.140625 -44.984375 C 26.992188 -41.816406 23.921875 -37.890625 23.921875 -33.203125 C 23.921875 -23.921875 30.984375 -19.28125 45.109375 -19.28125 Z M 45.109375 -19.28125 "/></g></g><g style="fill:rgb(100%,0%,100%);fill-opacity:1;"><g transform="translate(4202.407192, 509.011332)"><path style="stroke:none;" d="M 110.921875 -88.671875 L 67.71875 -88.671875 L 67.71875 -22.140625 L 93.078125 -22.140625 L 93.078125 0 L 18.5625 0 L 18.5625 -22.140625 L 43.078125 -22.140625 L 43.078125 -88.671875 L 18.5625 -88.671875 L 18.5625 -110.921875 L 43.078125 -110.921875 C 43.078125 -126.160156 47.757812 -137.804688 57.125 -145.859375 C 66.488281 -153.910156 79.144531 -157.9375 95.09375 -157.9375 C 97.476562 -157.9375 100.019531 -157.816406 102.71875 -157.578125 C 105.414062 -157.335938 108.148438 -157.0625 110.921875 -156.75 L 110.921875 -135.09375 C 106.160156 -135.5625 101.835938 -135.796875 97.953125 -135.796875 C 91.609375 -135.796875 86.488281 -135.335938 82.59375 -134.421875 C 78.707031 -133.515625 75.671875 -132.050781 73.484375 -130.03125 C 71.304688 -128.007812 69.800781 -125.410156 68.96875 -122.234375 C 68.132812 -119.054688 67.71875 -115.285156 67.71875 -110.921875 L 110.921875 -110.921875 Z M 110.921875 -88.671875 "/></g></g><g style="fill:rgb(100%,0%,100%);fill-opacity:1;"><g transform="translate(4346.930252, 509.011332)"><path style="stroke:none;" d="M 110.921875 -88.671875 L 67.71875 -88.671875 L 67.71875 -22.140625 L 93.078125 -22.140625 L 93.078125 0 L 18.5625 0 L 18.5625 -22.140625 L 43.078125 -22.140625 L 43.078125 -88.671875 L 18.5625 -88.671875 L 18.5625 -110.921875 L 43.078125 -110.921875 C 43.078125 -126.160156 47.757812 -137.804688 57.125 -145.859375 C 66.488281 -153.910156 79.144531 -157.9375 95.09375 -157.9375 C 97.476562 -157.9375 100.019531 -157.816406 102.71875 -157.578125 C 105.414062 -157.335938 108.148438 -157.0625 110.921875 -156.75 L 110.921875 -135.09375 C 106.160156 -135.5625 101.835938 -135.796875 97.953125 -135.796875 C 91.609375 -135.796875 86.488281 -135.335938 82.59375 -134.421875 C 78.707031 -133.515625 75.671875 -132.050781 73.484375 -130.03125 C 71.304688 -128.007812 69.800781 -125.410156 68.96875 -122.234375 C 68.132812 -119.054688 67.71875 -115.285156 67.71875 -110.921875 L 110.921875 -110.921875 Z M 110.921875 -88.671875 "/></g></g><g style="fill:rgb(100%,0%,100%);fill-opacity:1;"><g transform="translate(4491.453311, 509.011332)"><path style="stroke:none;" d="M -0.46875 -31.890625 C -0.46875 -38.398438 1.273438 -44.09375 4.765625 -48.96875 C 8.253906 -53.851562 12.832031 -57.921875 18.5 -61.171875 C 24.175781 -64.429688 30.679688 -66.875 38.015625 -68.5 C 45.359375 -70.125 52.84375 -70.9375 60.46875 -70.9375 C 64.664062 -70.9375 68.269531 -70.851562 71.28125 -70.6875 C 74.300781 -70.53125 77.359375 -70.296875 80.453125 -69.984375 L 80.453125 -74.390625 C 80.453125 -80.179688 78.207031 -84.503906 73.71875 -87.359375 C 69.238281 -90.210938 63.351562 -91.640625 56.0625 -91.640625 C 49.394531 -91.640625 42.609375 -90.707031 35.703125 -88.84375 C 28.796875 -86.976562 22.25 -84.257812 16.0625 -80.6875 L 6.0625 -99.96875 C 13.363281 -104.175781 21.195312 -107.488281 29.5625 -109.90625 C 37.9375 -112.332031 46.769531 -113.546875 56.0625 -113.546875 C 62.09375 -113.546875 68.019531 -112.867188 73.84375 -111.515625 C 79.675781 -110.171875 84.914062 -107.953125 89.5625 -104.859375 C 94.207031 -101.765625 97.914062 -97.738281 100.6875 -92.78125 C 103.46875 -87.820312 104.859375 -81.691406 104.859375 -74.390625 L 104.859375 0 L 80.453125 0 L 80.453125 -16.3125 C 76.566406 -10.28125 70.832031 -5.597656 63.25 -2.265625 C 55.675781 1.066406 47.523438 2.734375 38.796875 2.734375 C 33.398438 2.734375 28.300781 2 23.5 0.53125 C 18.707031 -0.9375 14.5625 -3.132812 11.0625 -6.0625 C 7.570312 -9 4.773438 -12.628906 2.671875 -16.953125 C 0.578125 -21.285156 -0.46875 -26.265625 -0.46875 -31.890625 Z M 45.109375 -19.28125 C 49.953125 -19.28125 54.492188 -19.894531 58.734375 -21.125 C 62.984375 -22.351562 66.734375 -24.054688 69.984375 -26.234375 C 73.234375 -28.421875 75.789062 -31.0625 77.65625 -34.15625 C 79.519531 -37.25 80.453125 -40.660156 80.453125 -44.390625 L 80.453125 -48.5625 C 76.566406 -49.195312 72.914062 -49.550781 69.5 -49.625 C 66.09375 -49.707031 63.082031 -49.75 60.46875 -49.75 C 48.40625 -49.75 39.296875 -48.160156 33.140625 -44.984375 C 26.992188 -41.816406 23.921875 -37.890625 23.921875 -33.203125 C 23.921875 -23.921875 30.984375 -19.28125 45.109375 -19.28125 Z M 45.109375 -19.28125 "/></g></g><g style="fill:rgb(100%,0%,100%);fill-opacity:1;"><g transform="translate(4635.97637, 509.011332)"><path style="stroke:none;" d="M 108.1875 -84.625 C 105.25 -86.050781 102.253906 -87.140625 99.203125 -87.890625 C 96.148438 -88.648438 92.640625 -89.03125 88.671875 -89.03125 C 83.191406 -89.03125 78.050781 -88.210938 73.25 -86.578125 C 68.457031 -84.953125 64.3125 -82.515625 60.8125 -79.265625 C 57.320312 -76.015625 54.601562 -71.945312 52.65625 -67.0625 C 50.71875 -62.1875 49.75 -56.414062 49.75 -49.75 L 49.75 -22.140625 L 74.625 -22.140625 L 74.625 0 L 0 0 L 0 -22.140625 L 25.109375 -22.140625 L 25.109375 -88.671875 L 0 -88.671875 L 0 -110.921875 L 49.75 -110.921875 L 49.75 -83.078125 C 53.789062 -94.179688 59.757812 -102.035156 67.65625 -106.640625 C 75.550781 -111.242188 84.9375 -113.546875 95.8125 -113.546875 C 99.21875 -113.546875 102.785156 -113.1875 106.515625 -112.46875 C 110.242188 -111.757812 113.894531 -110.488281 117.46875 -108.65625 Z M 108.1875 -84.625 "/></g></g><g style="fill:rgb(100%,0%,100%);fill-opacity:1;"><g transform="translate(4780.49943, 509.011332)"><path style="stroke:none;" d="M 70.453125 0 L 40.46875 0 L 40.46875 -30 L 70.453125 -30 Z M 70.453125 0 "/></g></g><g style="fill:rgb(0%,100%,100%);fill-opacity:1;"><g transform="translate(270.423543, 509.011332)"><path style="stroke:none;" d="M 105.09375 0 L 80.453125 0 L 80.453125 -67.953125 L 30.46875 -67.953125 L 30.46875 0 L 5.828125 0 L 5.828125 -155.3125 L 30.46875 -155.3125 L 30.46875 -90.21875 L 80.453125 -90.21875 L 80.453125 -155.3125 L 105.09375 -155.3125 Z M 105.09375 0 "/></g></g><g style="fill:rgb(0%,100%,100%);fill-opacity:1;"><g transform="translate(414.946622, 509.011332)"><path style="stroke:none;" d="M 22.609375 -46.0625 C 23.804688 -38.445312 27.4375 -32.117188 33.5 -27.078125 C 39.570312 -22.035156 47.726562 -19.515625 57.96875 -19.515625 C 65.976562 -19.515625 72.9375 -20.765625 78.84375 -23.265625 C 84.757812 -25.765625 89.859375 -29.078125 94.140625 -33.203125 L 106.765625 -15.828125 C 99.617188 -8.691406 92.054688 -3.8125 84.078125 -1.1875 C 76.109375 1.425781 67.40625 2.734375 57.96875 2.734375 C 49.394531 2.734375 41.414062 1.304688 34.03125 -1.546875 C 26.65625 -4.398438 20.269531 -8.382812 14.875 -13.5 C 9.476562 -18.625 5.253906 -24.71875 2.203125 -31.78125 C -0.847656 -38.84375 -2.375 -46.695312 -2.375 -55.34375 C -2.375 -63.75 -0.96875 -71.503906 1.84375 -78.609375 C 4.65625 -85.710938 8.617188 -91.863281 13.734375 -97.0625 C 18.859375 -102.257812 24.988281 -106.304688 32.125 -109.203125 C 39.269531 -112.097656 47.164062 -113.546875 55.8125 -113.546875 C 64.78125 -113.546875 72.914062 -112.015625 80.21875 -108.953125 C 87.519531 -105.898438 93.769531 -101.476562 98.96875 -95.6875 C 104.164062 -89.894531 108.226562 -82.8125 111.15625 -74.4375 C 114.09375 -66.070312 115.5625 -56.613281 115.5625 -46.0625 Z M 87.71875 -67.71875 C 86.445312 -74.863281 82.753906 -80.597656 76.640625 -84.921875 C 70.535156 -89.242188 63.59375 -91.40625 55.8125 -91.40625 C 48.039062 -91.40625 41.0625 -89.242188 34.875 -84.921875 C 28.6875 -80.597656 24.957031 -74.863281 23.6875 -67.71875 Z M 87.71875 -67.71875 "/></g></g><g style="fill:rgb(0%,100%,100%);fill-opacity:1;"><g transform="translate(559.469702, 509.011332)"><path style="stroke:none;" d="M 93.3125 0 L 18.8125 0 L 18.8125 -22.140625 L 43.078125 -22.140625 L 43.078125 -133.0625 L 18.8125 -133.0625 L 18.8125 -155.3125 L 67.71875 -155.3125 L 67.71875 -22.140625 L 93.3125 -22.140625 Z M 93.3125 0 "/></g></g><g style="fill:rgb(0%,100%,100%);fill-opacity:1;"><g transform="translate(703.992802, 509.011332)"><path style="stroke:none;" d="M 93.3125 0 L 18.8125 0 L 18.8125 -22.140625 L 43.078125 -22.140625 L 43.078125 -133.0625 L 18.8125 -133.0625 L 18.8125 -155.3125 L 67.71875 -155.3125 L 67.71875 -22.140625 L 93.3125 -22.140625 Z M 93.3125 0 "/></g></g><g style="fill:rgb(0%,100%,100%);fill-opacity:1;"><g transform="translate(848.515861, 509.011332)"><path style="stroke:none;" d="M 113.78125 -55.34375 C 113.78125 -46.695312 112.410156 -38.84375 109.671875 -31.78125 C 106.929688 -24.71875 103.003906 -18.625 97.890625 -13.5 C 92.773438 -8.382812 86.644531 -4.398438 79.5 -1.546875 C 72.363281 1.304688 64.390625 2.734375 55.578125 2.734375 C 46.929688 2.734375 39.035156 1.304688 31.890625 -1.546875 C 24.753906 -4.398438 18.625 -8.382812 13.5 -13.5 C 8.382812 -18.625 4.457031 -24.71875 1.71875 -31.78125 C -1.007812 -38.84375 -2.375 -46.695312 -2.375 -55.34375 C -2.375 -63.75 -1.007812 -71.539062 1.71875 -78.71875 C 4.457031 -85.90625 8.382812 -92.097656 13.5 -97.296875 C 18.625 -102.492188 24.753906 -106.5 31.890625 -109.3125 C 39.035156 -112.132812 46.929688 -113.546875 55.578125 -113.546875 C 64.390625 -113.546875 72.363281 -112.132812 79.5 -109.3125 C 86.644531 -106.5 92.773438 -102.492188 97.890625 -97.296875 C 103.003906 -92.097656 106.929688 -85.90625 109.671875 -78.71875 C 112.410156 -71.539062 113.78125 -63.75 113.78125 -55.34375 Z M 89.265625 -55.34375 C 89.265625 -60.34375 88.488281 -65.082031 86.9375 -69.5625 C 85.394531 -74.050781 83.15625 -77.878906 80.21875 -81.046875 C 77.28125 -84.222656 73.726562 -86.742188 69.5625 -88.609375 C 65.394531 -90.472656 60.734375 -91.40625 55.578125 -91.40625 C 50.335938 -91.40625 45.65625 -90.472656 41.53125 -88.609375 C 37.40625 -86.742188 33.914062 -84.222656 31.0625 -81.046875 C 28.207031 -77.878906 26.003906 -74.050781 24.453125 -69.5625 C 22.910156 -65.082031 22.140625 -60.34375 22.140625 -55.34375 C 22.140625 -50.101562 22.910156 -45.34375 24.453125 -41.0625 C 26.003906 -36.78125 28.207031 -33.007812 31.0625 -29.75 C 33.914062 -26.5 37.40625 -23.976562 41.53125 -22.1875 C 45.65625 -20.40625 50.335938 -19.515625 55.578125 -19.515625 C 60.734375 -19.515625 65.394531 -20.40625 69.5625 -22.1875 C 73.726562 -23.976562 77.28125 -26.5 80.21875 -29.75 C 83.15625 -33.007812 85.394531 -36.78125 86.9375 -41.0625 C 88.488281 -45.34375 89.265625 -50.101562 89.265625 -55.34375 Z M 89.265625 -55.34375 "/></g></g><g style="fill:rgb(0%,100%,100%);fill-opacity:1;"><g transform="translate(993.038921, 509.011332)"><path style="stroke:none;" d="M 76.296875 -22.25 L 43.6875 44.28125 L 24.875 44.28125 L 47.015625 -22.25 Z M 76.296875 -22.25 "/></g></g><g style="fill:rgb(0%,100%,100%);fill-opacity:1;"><g transform="translate(1137.56198, 509.011332)"><path style="stroke:none;" d=""/></g></g><g style="fill:rgb(0%,100%,100%);fill-opacity:1;"><g transform="translate(1282.08504, 509.011332)"><path style="stroke:none;" d="M 116.046875 -77.71875 C 116.046875 -67.320312 114.953125 -57.421875 112.765625 -48.015625 C 110.585938 -38.617188 107.097656 -30.367188 102.296875 -23.265625 C 97.492188 -16.160156 91.300781 -10.503906 83.71875 -6.296875 C 76.144531 -2.097656 67.003906 0 56.296875 0 L 5.828125 0 L 5.828125 -155.3125 L 56.296875 -155.3125 C 66.847656 -155.3125 75.910156 -153.1875 83.484375 -148.9375 C 91.066406 -144.695312 97.257812 -139.046875 102.0625 -131.984375 C 106.863281 -124.929688 110.394531 -116.722656 112.65625 -107.359375 C 114.914062 -97.992188 116.046875 -88.113281 116.046875 -77.71875 Z M 91.40625 -77.71875 C 91.40625 -95.65625 88.347656 -109.363281 82.234375 -118.84375 C 76.128906 -128.320312 67.484375 -133.0625 56.296875 -133.0625 L 30.46875 -133.0625 L 30.46875 -22.140625 L 56.296875 -22.140625 C 67.484375 -22.140625 76.128906 -26.976562 82.234375 -36.65625 C 88.347656 -46.332031 91.40625 -60.019531 91.40625 -77.71875 Z M 91.40625 -77.71875 "/></g></g><g style="fill:rgb(0%,100%,100%);fill-opacity:1;"><g transform="translate(1426.608099, 509.011332)"><path style="stroke:none;" d="M 22.609375 -46.0625 C 23.804688 -38.445312 27.4375 -32.117188 33.5 -27.078125 C 39.570312 -22.035156 47.726562 -19.515625 57.96875 -19.515625 C 65.976562 -19.515625 72.9375 -20.765625 78.84375 -23.265625 C 84.757812 -25.765625 89.859375 -29.078125 94.140625 -33.203125 L 106.765625 -15.828125 C 99.617188 -8.691406 92.054688 -3.8125 84.078125 -1.1875 C 76.109375 1.425781 67.40625 2.734375 57.96875 2.734375 C 49.394531 2.734375 41.414062 1.304688 34.03125 -1.546875 C 26.65625 -4.398438 20.269531 -8.382812 14.875 -13.5 C 9.476562 -18.625 5.253906 -24.71875 2.203125 -31.78125 C -0.847656 -38.84375 -2.375 -46.695312 -2.375 -55.34375 C -2.375 -63.75 -0.96875 -71.503906 1.84375 -78.609375 C 4.65625 -85.710938 8.617188 -91.863281 13.734375 -97.0625 C 18.859375 -102.257812 24.988281 -106.304688 32.125 -109.203125 C 39.269531 -112.097656 47.164062 -113.546875 55.8125 -113.546875 C 64.78125 -113.546875 72.914062 -112.015625 80.21875 -108.953125 C 87.519531 -105.898438 93.769531 -101.476562 98.96875 -95.6875 C 104.164062 -89.894531 108.226562 -82.8125 111.15625 -74.4375 C 114.09375 -66.070312 115.5625 -56.613281 115.5625 -46.0625 Z M 87.71875 -67.71875 C 86.445312 -74.863281 82.753906 -80.597656 76.640625 -84.921875 C 70.535156 -89.242188 63.59375 -91.40625 55.8125 -91.40625 C 48.039062 -91.40625 41.0625 -89.242188 34.875 -84.921875 C 28.6875 -80.597656 24.957031 -74.863281 23.6875 -67.71875 Z M 87.71875 -67.71875 "/></g></g><g style="fill:rgb(0%,100%,100%);fill-opacity:1;"><g transform="translate(1571.131158, 509.011332)"><path style="stroke:none;" d="M 110.921875 -110.921875 L 69.984375 0 L 40.9375 0 L 0 -110.921875 L 26.296875 -110.921875 L 55.578125 -27.015625 L 84.625 -110.921875 Z M 110.921875 -110.921875 "/></g></g><g style="fill:rgb(0%,100%,100%);fill-opacity:1;"><g transform="translate(1715.654299, 509.011332)"><path style="stroke:none;" d="M 22.609375 -46.0625 C 23.804688 -38.445312 27.4375 -32.117188 33.5 -27.078125 C 39.570312 -22.035156 47.726562 -19.515625 57.96875 -19.515625 C 65.976562 -19.515625 72.9375 -20.765625 78.84375 -23.265625 C 84.757812 -25.765625 89.859375 -29.078125 94.140625 -33.203125 L 106.765625 -15.828125 C 99.617188 -8.691406 92.054688 -3.8125 84.078125 -1.1875 C 76.109375 1.425781 67.40625 2.734375 57.96875 2.734375 C 49.394531 2.734375 41.414062 1.304688 34.03125 -1.546875 C 26.65625 -4.398438 20.269531 -8.382812 14.875 -13.5 C 9.476562 -18.625 5.253906 -24.71875 2.203125 -31.78125 C -0.847656 -38.84375 -2.375 -46.695312 -2.375 -55.34375 C -2.375 -63.75 -0.96875 -71.503906 1.84375 -78.609375 C 4.65625 -85.710938 8.617188 -91.863281 13.734375 -97.0625 C 18.859375 -102.257812 24.988281 -106.304688 32.125 -109.203125 C 39.269531 -112.097656 47.164062 -113.546875 55.8125 -113.546875 C 64.78125 -113.546875 72.914062 -112.015625 80.21875 -108.953125 C 87.519531 -105.898438 93.769531 -101.476562 98.96875 -95.6875 C 104.164062 -89.894531 108.226562 -82.8125 111.15625 -74.4375 C 114.09375 -66.070312 115.5625 -56.613281 115.5625 -46.0625 Z M 87.71875 -67.71875 C 86.445312 -74.863281 82.753906 -80.597656 76.640625 -84.921875 C 70.535156 -89.242188 63.59375 -91.40625 55.8125 -91.40625 C 48.039062 -91.40625 41.0625 -89.242188 34.875 -84.921875 C 28.6875 -80.597656 24.957031 -74.863281 23.6875 -67.71875 Z M 87.71875 -67.71875 "/></g></g><g style="fill:rgb(0%,100%,100%);fill-opacity:1;"><g transform="translate(1860.177358, 509.011332)"><path style="stroke:none;" d="M 93.3125 0 L 18.8125 0 L 18.8125 -22.140625 L 43.078125 -22.140625 L 43.078125 -133.0625 L 18.8125 -133.0625 L 18.8125 -155.3125 L 67.71875 -155.3125 L 67.71875 -22.140625 L 93.3125 -22.140625 Z M 93.3125 0 "/></g></g><g style="fill:rgb(0%,100%,100%);fill-opacity:1;"><g transform="translate(2004.700418, 509.011332)"><path style="stroke:none;" d="M 113.78125 -55.34375 C 113.78125 -46.695312 112.410156 -38.84375 109.671875 -31.78125 C 106.929688 -24.71875 103.003906 -18.625 97.890625 -13.5 C 92.773438 -8.382812 86.644531 -4.398438 79.5 -1.546875 C 72.363281 1.304688 64.390625 2.734375 55.578125 2.734375 C 46.929688 2.734375 39.035156 1.304688 31.890625 -1.546875 C 24.753906 -4.398438 18.625 -8.382812 13.5 -13.5 C 8.382812 -18.625 4.457031 -24.71875 1.71875 -31.78125 C -1.007812 -38.84375 -2.375 -46.695312 -2.375 -55.34375 C -2.375 -63.75 -1.007812 -71.539062 1.71875 -78.71875 C 4.457031 -85.90625 8.382812 -92.097656 13.5 -97.296875 C 18.625 -102.492188 24.753906 -106.5 31.890625 -109.3125 C 39.035156 -112.132812 46.929688 -113.546875 55.578125 -113.546875 C 64.390625 -113.546875 72.363281 -112.132812 79.5 -109.3125 C 86.644531 -106.5 92.773438 -102.492188 97.890625 -97.296875 C 103.003906 -92.097656 106.929688 -85.90625 109.671875 -78.71875 C 112.410156 -71.539062 113.78125 -63.75 113.78125 -55.34375 Z M 89.265625 -55.34375 C 89.265625 -60.34375 88.488281 -65.082031 86.9375 -69.5625 C 85.394531 -74.050781 83.15625 -77.878906 80.21875 -81.046875 C 77.28125 -84.222656 73.726562 -86.742188 69.5625 -88.609375 C 65.394531 -90.472656 60.734375 -91.40625 55.578125 -91.40625 C 50.335938 -91.40625 45.65625 -90.472656 41.53125 -88.609375 C 37.40625 -86.742188 33.914062 -84.222656 31.0625 -81.046875 C 28.207031 -77.878906 26.003906 -74.050781 24.453125 -69.5625 C 22.910156 -65.082031 22.140625 -60.34375 22.140625 -55.34375 C 22.140625 -50.101562 22.910156 -45.34375 24.453125 -41.0625 C 26.003906 -36.78125 28.207031 -33.007812 31.0625 -29.75 C 33.914062 -26.5 37.40625 -23.976562 41.53125 -22.1875 C 45.65625 -20.40625 50.335938 -19.515625 55.578125 -19.515625 C 60.734375 -19.515625 65.394531 -20.40625 69.5625 -22.1875 C 73.726562 -23.976562 77.28125 -26.5 80.21875 -29.75 C 83.15625 -33.007812 85.394531 -36.78125 86.9375 -41.0625 C 88.488281 -45.34375 89.265625 -50.101562 89.265625 -55.34375 Z M 89.265625 -55.34375 "/></g></g><g style="fill:rgb(0%,100%,100%);fill-opacity:1;"><g transform="translate(2149.223477, 509.011332)"><path style="stroke:none;" d="M 5.828125 -110.921875 L 30.46875 -110.921875 L 30.46875 -100.921875 C 35.144531 -105.128906 39.882812 -108.285156 44.6875 -110.390625 C 49.488281 -112.492188 54.984375 -113.546875 61.171875 -113.546875 C 68.316406 -113.546875 74.941406 -112.097656 81.046875 -109.203125 C 87.160156 -106.304688 92.398438 -102.296875 96.765625 -97.171875 C 101.128906 -92.054688 104.578125 -85.90625 107.109375 -78.71875 C 109.648438 -71.539062 110.921875 -63.75 110.921875 -55.34375 C 110.921875 -46.851562 109.648438 -39.035156 107.109375 -31.890625 C 104.578125 -24.753906 101.128906 -18.625 96.765625 -13.5 C 92.398438 -8.382812 87.160156 -4.398438 81.046875 -1.546875 C 74.941406 1.304688 68.316406 2.734375 61.171875 2.734375 C 54.984375 2.734375 49.488281 1.625 44.6875 -0.59375 C 39.882812 -2.8125 35.144531 -6.023438 30.46875 -10.234375 L 30.46875 44.390625 L 5.828125 44.390625 Z M 30.46875 -29.75 C 33.40625 -26.5 37.15625 -23.976562 41.71875 -22.1875 C 46.28125 -20.40625 50.664062 -19.515625 54.875 -19.515625 C 64.15625 -19.515625 71.707031 -22.804688 77.53125 -29.390625 C 83.363281 -35.984375 86.28125 -44.632812 86.28125 -55.34375 C 86.28125 -66.050781 83.363281 -74.738281 77.53125 -81.40625 C 71.707031 -88.070312 64.15625 -91.40625 54.875 -91.40625 C 50.664062 -91.40625 46.28125 -90.550781 41.71875 -88.84375 C 37.15625 -87.132812 33.40625 -84.65625 30.46875 -81.40625 Z M 30.46875 -29.75 "/></g></g><g style="fill:rgb(0%,100%,100%);fill-opacity:1;"><g transform="translate(2293.746536, 509.011332)"><path style="stroke:none;" d="M 22.609375 -46.0625 C 23.804688 -38.445312 27.4375 -32.117188 33.5 -27.078125 C 39.570312 -22.035156 47.726562 -19.515625 57.96875 -19.515625 C 65.976562 -19.515625 72.9375 -20.765625 78.84375 -23.265625 C 84.757812 -25.765625 89.859375 -29.078125 94.140625 -33.203125 L 106.765625 -15.828125 C 99.617188 -8.691406 92.054688 -3.8125 84.078125 -1.1875 C 76.109375 1.425781 67.40625 2.734375 57.96875 2.734375 C 49.394531 2.734375 41.414062 1.304688 34.03125 -1.546875 C 26.65625 -4.398438 20.269531 -8.382812 14.875 -13.5 C 9.476562 -18.625 5.253906 -24.71875 2.203125 -31.78125 C -0.847656 -38.84375 -2.375 -46.695312 -2.375 -55.34375 C -2.375 -63.75 -0.96875 -71.503906 1.84375 -78.609375 C 4.65625 -85.710938 8.617188 -91.863281 13.734375 -97.0625 C 18.859375 -102.257812 24.988281 -106.304688 32.125 -109.203125 C 39.269531 -112.097656 47.164062 -113.546875 55.8125 -113.546875 C 64.78125 -113.546875 72.914062 -112.015625 80.21875 -108.953125 C 87.519531 -105.898438 93.769531 -101.476562 98.96875 -95.6875 C 104.164062 -89.894531 108.226562 -82.8125 111.15625 -74.4375 C 114.09375 -66.070312 115.5625 -56.613281 115.5625 -46.0625 Z M 87.71875 -67.71875 C 86.445312 -74.863281 82.753906 -80.597656 76.640625 -84.921875 C 70.535156 -89.242188 63.59375 -91.40625 55.8125 -91.40625 C 48.039062 -91.40625 41.0625 -89.242188 34.875 -84.921875 C 28.6875 -80.597656 24.957031 -74.863281 23.6875 -67.71875 Z M 87.71875 -67.71875 "/></g></g><g style="fill:rgb(0%,100%,100%);fill-opacity:1;"><g transform="translate(2438.269596, 509.011332)"><path style="stroke:none;" d="M 108.1875 -84.625 C 105.25 -86.050781 102.253906 -87.140625 99.203125 -87.890625 C 96.148438 -88.648438 92.640625 -89.03125 88.671875 -89.03125 C 83.191406 -89.03125 78.050781 -88.210938 73.25 -86.578125 C 68.457031 -84.953125 64.3125 -82.515625 60.8125 -79.265625 C 57.320312 -76.015625 54.601562 -71.945312 52.65625 -67.0625 C 50.71875 -62.1875 49.75 -56.414062 49.75 -49.75 L 49.75 -22.140625 L 74.625 -22.140625 L 74.625 0 L 0 0 L 0 -22.140625 L 25.109375 -22.140625 L 25.109375 -88.671875 L 0 -88.671875 L 0 -110.921875 L 49.75 -110.921875 L 49.75 -83.078125 C 53.789062 -94.179688 59.757812 -102.035156 67.65625 -106.640625 C 75.550781 -111.242188 84.9375 -113.546875 95.8125 -113.546875 C 99.21875 -113.546875 102.785156 -113.1875 106.515625 -112.46875 C 110.242188 -111.757812 113.894531 -110.488281 117.46875 -108.65625 Z M 108.1875 -84.625 "/></g></g><g style="fill:rgb(0%,100%,100%);fill-opacity:1;"><g transform="translate(2582.792655, 509.011332)"><path style="stroke:none;" d="M 107.953125 -33.203125 C 107.953125 -25.984375 106.320312 -20.113281 103.0625 -15.59375 C 99.8125 -11.070312 95.628906 -7.421875 90.515625 -4.640625 C 85.398438 -1.859375 79.6875 0.0625 73.375 1.125 C 67.0625 2.195312 60.894531 2.734375 54.875 2.734375 C 44.789062 2.734375 34.75 1.269531 24.75 -1.65625 C 14.757812 -4.59375 6.113281 -8.445312 -1.1875 -13.21875 L 9.046875 -33.4375 C 17.773438 -28.363281 25.769531 -24.773438 33.03125 -22.671875 C 40.289062 -20.566406 47.570312 -19.515625 54.875 -19.515625 C 64.789062 -19.515625 72.007812 -20.566406 76.53125 -22.671875 C 81.050781 -24.773438 83.3125 -27.691406 83.3125 -31.421875 C 83.3125 -33.242188 82.675781 -34.75 81.40625 -35.9375 C 80.132812 -37.132812 78.03125 -38.226562 75.09375 -39.21875 C 72.164062 -40.207031 68.300781 -41.195312 63.5 -42.1875 C 58.695312 -43.1875 52.722656 -44.238281 45.578125 -45.34375 C 39.867188 -46.300781 34.453125 -47.472656 29.328125 -48.859375 C 24.210938 -50.242188 19.710938 -52.207031 15.828125 -54.75 C 11.941406 -57.289062 8.828125 -60.503906 6.484375 -64.390625 C 4.140625 -68.273438 2.96875 -73.15625 2.96875 -79.03125 C 2.96875 -84.976562 4.492188 -90.15625 7.546875 -94.5625 C 10.609375 -98.96875 14.617188 -102.597656 19.578125 -105.453125 C 24.535156 -108.304688 30.109375 -110.367188 36.296875 -111.640625 C 42.484375 -112.910156 48.675781 -113.546875 54.875 -113.546875 C 63.59375 -113.546875 72.054688 -112.414062 80.265625 -110.15625 C 88.484375 -107.894531 95.6875 -104.660156 101.875 -100.453125 L 92.125 -81.40625 C 85.9375 -85.289062 79.925781 -87.925781 74.09375 -89.3125 C 68.257812 -90.707031 61.851562 -91.40625 54.875 -91.40625 C 51.9375 -91.40625 48.878906 -91.242188 45.703125 -90.921875 C 42.523438 -90.609375 39.585938 -89.992188 36.890625 -89.078125 C 34.191406 -88.171875 31.953125 -86.941406 30.171875 -85.390625 C 28.390625 -83.847656 27.5 -81.96875 27.5 -79.75 C 27.5 -76.8125 30.09375 -74.410156 35.28125 -72.546875 C 40.476562 -70.679688 49.347656 -68.832031 61.890625 -67 C 68.710938 -66.050781 74.941406 -64.84375 80.578125 -63.375 C 86.210938 -61.90625 91.050781 -59.921875 95.09375 -57.421875 C 99.144531 -54.921875 102.300781 -51.707031 104.5625 -47.78125 C 106.820312 -43.851562 107.953125 -38.992188 107.953125 -33.203125 Z M 107.953125 -33.203125 "/></g></g><g style="fill:rgb(0%,100%,100%);fill-opacity:1;"><g transform="translate(2727.315714, 509.011332)"><path style="stroke:none;" d="M 71.65625 -155.3125 L 65.578125 -44.390625 L 45.34375 -44.390625 L 39.28125 -155.3125 Z M 70.453125 0 L 40.46875 0 L 40.46875 -30 L 70.453125 -30 Z M 70.453125 0 "/></g></g><g style="fill:rgb(0%,100%,100%);fill-opacity:1;"><g transform="translate(2871.838774, 509.011332)"><path style="stroke:none;" d=""/></g></g><g style="fill:rgb(0%,100%,100%);fill-opacity:1;"><g transform="translate(3016.361833, 509.011332)"><path style="stroke:none;" d="M 93.078125 0 L 18.5625 0 L 18.5625 -22.140625 L 43.078125 -22.140625 L 43.078125 -133.0625 L 18.5625 -133.0625 L 18.5625 -155.3125 L 93.078125 -155.3125 L 93.078125 -133.0625 L 67.71875 -133.0625 L 67.71875 -22.140625 L 93.078125 -22.140625 Z M 93.078125 0 "/></g></g><g style="fill:rgb(0%,100%,100%);fill-opacity:1;"><g transform="translate(3160.885055, 509.011332)"><path style="stroke:none;" d="M 70.21875 -155.3125 L 64.859375 -95.8125 L 46.0625 -95.8125 L 40.703125 -155.3125 Z M 70.21875 -155.3125 "/></g></g><g style="fill:rgb(0%,100%,100%);fill-opacity:1;"><g transform="translate(3305.408114, 509.011332)"><path style="stroke:none;" d="M 110.921875 0 L 86.28125 0 L 86.28125 -76.046875 C 86.28125 -81.285156 85.742188 -85.15625 84.671875 -87.65625 C 83.609375 -90.15625 81.726562 -91.40625 79.03125 -91.40625 C 74.113281 -91.40625 71 -88.644531 69.6875 -83.125 C 68.375 -77.613281 67.71875 -69.582031 67.71875 -59.03125 L 67.71875 0 L 43.078125 0 L 43.078125 -76.046875 C 43.078125 -81.285156 42.519531 -85.15625 41.40625 -87.65625 C 40.300781 -90.15625 38.363281 -91.40625 35.59375 -91.40625 C 30.75 -91.40625 27.710938 -88.644531 26.484375 -83.125 C 25.253906 -77.613281 24.640625 -69.582031 24.640625 -59.03125 L 24.640625 0 L 0 0 L 0 -110.921875 L 24.875 -110.921875 L 24.875 -94.859375 C 26.625 -100.960938 29.203125 -105.601562 32.609375 -108.78125 C 36.023438 -111.957031 40.585938 -113.546875 46.296875 -113.546875 C 51.054688 -113.546875 55.039062 -112.097656 58.25 -109.203125 C 61.46875 -106.304688 63.671875 -102.316406 64.859375 -97.234375 C 67.640625 -102.785156 70.515625 -106.890625 73.484375 -109.546875 C 76.460938 -112.210938 81.046875 -113.546875 87.234375 -113.546875 C 94.859375 -113.546875 100.710938 -110.75 104.796875 -105.15625 C 108.878906 -99.5625 110.921875 -91.09375 110.921875 -79.75 Z M 110.921875 0 "/></g></g><g style="fill:rgb(0%,100%,100%);fill-opacity:1;"><g transform="translate(3449.931174, 509.011332)"><path style="stroke:none;" d=""/></g></g><g style="fill:rgb(0%,100%,100%);fill-opacity:1;"><g transform="translate(3594.454233, 509.011332)"><path style="stroke:none;" d="M 105.09375 0 L 80.453125 0 L 80.453125 -105.09375 L 64.859375 -49.28125 L 45.828125 -49.28125 L 30.46875 -105.09375 L 30.46875 0 L 5.828125 0 L 5.828125 -155.3125 L 35.109375 -155.3125 L 55.34375 -85.09375 L 75.578125 -155.3125 L 105.09375 -155.3125 Z M 105.09375 0 "/></g></g><g style="fill:rgb(0%,100%,100%);fill-opacity:1;"><g transform="translate(3738.977292, 509.011332)"><path style="stroke:none;" d="M 5.828125 -110.921875 L 30.46875 -110.921875 L 30.46875 -42.375 C 30.46875 -33.800781 32.09375 -27.847656 35.34375 -24.515625 C 38.601562 -21.179688 43.328125 -19.515625 49.515625 -19.515625 C 58.554688 -19.515625 65.972656 -23.203125 71.765625 -30.578125 C 77.554688 -37.960938 80.453125 -48.160156 80.453125 -61.171875 L 80.453125 -110.921875 L 105.09375 -110.921875 L 105.09375 0 L 80.453125 0 L 80.453125 -27.734375 C 77.992188 -18.210938 73.429688 -10.753906 66.765625 -5.359375 C 60.097656 0.0351562 51.882812 2.734375 42.125 2.734375 C 30.78125 2.734375 21.894531 -0.972656 15.46875 -8.390625 C 9.039062 -15.804688 5.828125 -27.132812 5.828125 -42.375 Z M 5.828125 -110.921875 "/></g></g><g style="fill:rgb(0%,100%,100%);fill-opacity:1;"><g transform="translate(3883.500352, 509.011332)"><path style="stroke:none;" d="M 105.09375 0 L 5.828125 0 L 5.828125 -21.90625 L 69.03125 -88.671875 L 27.5 -88.671875 L 27.5 -66.296875 L 5.828125 -66.296875 L 5.828125 -110.921875 L 102.828125 -110.921875 L 102.828125 -88.671875 L 39.515625 -22.140625 L 83.3125 -22.140625 L 83.3125 -44.15625 L 105.09375 -44.15625 Z M 105.09375 0 "/></g></g><g style="fill:rgb(0%,100%,100%);fill-opacity:1;"><g transform="translate(4028.023411, 509.011332)"><path style="stroke:none;" d="M -0.46875 -31.890625 C -0.46875 -38.398438 1.273438 -44.09375 4.765625 -48.96875 C 8.253906 -53.851562 12.832031 -57.921875 18.5 -61.171875 C 24.175781 -64.429688 30.679688 -66.875 38.015625 -68.5 C 45.359375 -70.125 52.84375 -70.9375 60.46875 -70.9375 C 64.664062 -70.9375 68.269531 -70.851562 71.28125 -70.6875 C 74.300781 -70.53125 77.359375 -70.296875 80.453125 -69.984375 L 80.453125 -74.390625 C 80.453125 -80.179688 78.207031 -84.503906 73.71875 -87.359375 C 69.238281 -90.210938 63.351562 -91.640625 56.0625 -91.640625 C 49.394531 -91.640625 42.609375 -90.707031 35.703125 -88.84375 C 28.796875 -86.976562 22.25 -84.257812 16.0625 -80.6875 L 6.0625 -99.96875 C 13.363281 -104.175781 21.195312 -107.488281 29.5625 -109.90625 C 37.9375 -112.332031 46.769531 -113.546875 56.0625 -113.546875 C 62.09375 -113.546875 68.019531 -112.867188 73.84375 -111.515625 C 79.675781 -110.171875 84.914062 -107.953125 89.5625 -104.859375 C 94.207031 -101.765625 97.914062 -97.738281 100.6875 -92.78125 C 103.46875 -87.820312 104.859375 -81.691406 104.859375 -74.390625 L 104.859375 0 L 80.453125 0 L 80.453125 -16.3125 C 76.566406 -10.28125 70.832031 -5.597656 63.25 -2.265625 C 55.675781 1.066406 47.523438 2.734375 38.796875 2.734375 C 33.398438 2.734375 28.300781 2 23.5 0.53125 C 18.707031 -0.9375 14.5625 -3.132812 11.0625 -6.0625 C 7.570312 -9 4.773438 -12.628906 2.671875 -16.953125 C 0.578125 -21.285156 -0.46875 -26.265625 -0.46875 -31.890625 Z M 45.109375 -19.28125 C 49.953125 -19.28125 54.492188 -19.894531 58.734375 -21.125 C 62.984375 -22.351562 66.734375 -24.054688 69.984375 -26.234375 C 73.234375 -28.421875 75.789062 -31.0625 77.65625 -34.15625 C 79.519531 -37.25 80.453125 -40.660156 80.453125 -44.390625 L 80.453125 -48.5625 C 76.566406 -49.195312 72.914062 -49.550781 69.5 -49.625 C 66.09375 -49.707031 63.082031 -49.75 60.46875 -49.75 C 48.40625 -49.75 39.296875 -48.160156 33.140625 -44.984375 C 26.992188 -41.816406 23.921875 -37.890625 23.921875 -33.203125 C 23.921875 -23.921875 30.984375 -19.28125 45.109375 -19.28125 Z M 45.109375 -19.28125 "/></g></g><g style="fill:rgb(0%,100%,100%);fill-opacity:1;"><g transform="translate(4172.546471, 509.011332)"><path style="stroke:none;" d="M 110.921875 -88.671875 L 67.71875 -88.671875 L 67.71875 -22.140625 L 93.078125 -22.140625 L 93.078125 0 L 18.5625 0 L 18.5625 -22.140625 L 43.078125 -22.140625 L 43.078125 -88.671875 L 18.5625 -88.671875 L 18.5625 -110.921875 L 43.078125 -110.921875 C 43.078125 -126.160156 47.757812 -137.804688 57.125 -145.859375 C 66.488281 -153.910156 79.144531 -157.9375 95.09375 -157.9375 C 97.476562 -157.9375 100.019531 -157.816406 102.71875 -157.578125 C 105.414062 -157.335938 108.148438 -157.0625 110.921875 -156.75 L 110.921875 -135.09375 C 106.160156 -135.5625 101.835938 -135.796875 97.953125 -135.796875 C 91.609375 -135.796875 86.488281 -135.335938 82.59375 -134.421875 C 78.707031 -133.515625 75.671875 -132.050781 73.484375 -130.03125 C 71.304688 -128.007812 69.800781 -125.410156 68.96875 -122.234375 C 68.132812 -119.054688 67.71875 -115.285156 67.71875 -110.921875 L 110.921875 -110.921875 Z M 110.921875 -88.671875 "/></g></g><g style="fill:rgb(0%,100%,100%);fill-opacity:1;"><g transform="translate(4317.06953, 509.011332)"><path style="stroke:none;" d="M 110.921875 -88.671875 L 67.71875 -88.671875 L 67.71875 -22.140625 L 93.078125 -22.140625 L 93.078125 0 L 18.5625 0 L 18.5625 -22.140625 L 43.078125 -22.140625 L 43.078125 -88.671875 L 18.5625 -88.671875 L 18.5625 -110.921875 L 43.078125 -110.921875 C 43.078125 -126.160156 47.757812 -137.804688 57.125 -145.859375 C 66.488281 -153.910156 79.144531 -157.9375 95.09375 -157.9375 C 97.476562 -157.9375 100.019531 -157.816406 102.71875 -157.578125 C 105.414062 -157.335938 108.148438 -157.0625 110.921875 -156.75 L 110.921875 -135.09375 C 106.160156 -135.5625 101.835938 -135.796875 97.953125 -135.796875 C 91.609375 -135.796875 86.488281 -135.335938 82.59375 -134.421875 C 78.707031 -133.515625 75.671875 -132.050781 73.484375 -130.03125 C 71.304688 -128.007812 69.800781 -125.410156 68.96875 -122.234375 C 68.132812 -119.054688 67.71875 -115.285156 67.71875 -110.921875 L 110.921875 -110.921875 Z M 110.921875 -88.671875 "/></g></g><g style="fill:rgb(0%,100%,100%);fill-opacity:1;"><g transform="translate(4461.592589, 509.011332)"><path style="stroke:none;" d="M -0.46875 -31.890625 C -0.46875 -38.398438 1.273438 -44.09375 4.765625 -48.96875 C 8.253906 -53.851562 12.832031 -57.921875 18.5 -61.171875 C 24.175781 -64.429688 30.679688 -66.875 38.015625 -68.5 C 45.359375 -70.125 52.84375 -70.9375 60.46875 -70.9375 C 64.664062 -70.9375 68.269531 -70.851562 71.28125 -70.6875 C 74.300781 -70.53125 77.359375 -70.296875 80.453125 -69.984375 L 80.453125 -74.390625 C 80.453125 -80.179688 78.207031 -84.503906 73.71875 -87.359375 C 69.238281 -90.210938 63.351562 -91.640625 56.0625 -91.640625 C 49.394531 -91.640625 42.609375 -90.707031 35.703125 -88.84375 C 28.796875 -86.976562 22.25 -84.257812 16.0625 -80.6875 L 6.0625 -99.96875 C 13.363281 -104.175781 21.195312 -107.488281 29.5625 -109.90625 C 37.9375 -112.332031 46.769531 -113.546875 56.0625 -113.546875 C 62.09375 -113.546875 68.019531 -112.867188 73.84375 -111.515625 C 79.675781 -110.171875 84.914062 -107.953125 89.5625 -104.859375 C 94.207031 -101.765625 97.914062 -97.738281 100.6875 -92.78125 C 103.46875 -87.820312 104.859375 -81.691406 104.859375 -74.390625 L 104.859375 0 L 80.453125 0 L 80.453125 -16.3125 C 76.566406 -10.28125 70.832031 -5.597656 63.25 -2.265625 C 55.675781 1.066406 47.523438 2.734375 38.796875 2.734375 C 33.398438 2.734375 28.300781 2 23.5 0.53125 C 18.707031 -0.9375 14.5625 -3.132812 11.0625 -6.0625 C 7.570312 -9 4.773438 -12.628906 2.671875 -16.953125 C 0.578125 -21.285156 -0.46875 -26.265625 -0.46875 -31.890625 Z M 45.109375 -19.28125 C 49.953125 -19.28125 54.492188 -19.894531 58.734375 -21.125 C 62.984375 -22.351562 66.734375 -24.054688 69.984375 -26.234375 C 73.234375 -28.421875 75.789062 -31.0625 77.65625 -34.15625 C 79.519531 -37.25 80.453125 -40.660156 80.453125 -44.390625 L 80.453125 -48.5625 C 76.566406 -49.195312 72.914062 -49.550781 69.5 -49.625 C 66.09375 -49.707031 63.082031 -49.75 60.46875 -49.75 C 48.40625 -49.75 39.296875 -48.160156 33.140625 -44.984375 C 26.992188 -41.816406 23.921875 -37.890625 23.921875 -33.203125 C 23.921875 -23.921875 30.984375 -19.28125 45.109375 -19.28125 Z M 45.109375 -19.28125 "/></g></g><g style="fill:rgb(0%,100%,100%);fill-opacity:1;"><g transform="translate(4606.115649, 509.011332)"><path style="stroke:none;" d="M 108.1875 -84.625 C 105.25 -86.050781 102.253906 -87.140625 99.203125 -87.890625 C 96.148438 -88.648438 92.640625 -89.03125 88.671875 -89.03125 C 83.191406 -89.03125 78.050781 -88.210938 73.25 -86.578125 C 68.457031 -84.953125 64.3125 -82.515625 60.8125 -79.265625 C 57.320312 -76.015625 54.601562 -71.945312 52.65625 -67.0625 C 50.71875 -62.1875 49.75 -56.414062 49.75 -49.75 L 49.75 -22.140625 L 74.625 -22.140625 L 74.625 0 L 0 0 L 0 -22.140625 L 25.109375 -22.140625 L 25.109375 -88.671875 L 0 -88.671875 L 0 -110.921875 L 49.75 -110.921875 L 49.75 -83.078125 C 53.789062 -94.179688 59.757812 -102.035156 67.65625 -106.640625 C 75.550781 -111.242188 84.9375 -113.546875 95.8125 -113.546875 C 99.21875 -113.546875 102.785156 -113.1875 106.515625 -112.46875 C 110.242188 -111.757812 113.894531 -110.488281 117.46875 -108.65625 Z M 108.1875 -84.625 "/></g></g><g style="fill:rgb(0%,100%,100%);fill-opacity:1;"><g transform="translate(4750.638708, 509.011332)"><path style="stroke:none;" d="M 70.453125 0 L 40.46875 0 L 40.46875 -30 L 70.453125 -30 Z M 70.453125 0 "/></g></g><g style="fill:rgb(100%,39.99939%,76.858521%);fill-opacity:1;"><g transform="translate(285.353904, 509.011332)"><path style="stroke:none;" d="M 105.09375 0 L 80.453125 0 L 80.453125 -67.953125 L 30.46875 -67.953125 L 30.46875 0 L 5.828125 0 L 5.828125 -155.3125 L 30.46875 -155.3125 L 30.46875 -90.21875 L 80.453125 -90.21875 L 80.453125 -155.3125 L 105.09375 -155.3125 Z M 105.09375 0 "/></g></g><g style="fill:rgb(100%,39.99939%,76.858521%);fill-opacity:1;"><g transform="translate(429.876983, 509.011332)"><path style="stroke:none;" d="M 22.609375 -46.0625 C 23.804688 -38.445312 27.4375 -32.117188 33.5 -27.078125 C 39.570312 -22.035156 47.726562 -19.515625 57.96875 -19.515625 C 65.976562 -19.515625 72.9375 -20.765625 78.84375 -23.265625 C 84.757812 -25.765625 89.859375 -29.078125 94.140625 -33.203125 L 106.765625 -15.828125 C 99.617188 -8.691406 92.054688 -3.8125 84.078125 -1.1875 C 76.109375 1.425781 67.40625 2.734375 57.96875 2.734375 C 49.394531 2.734375 41.414062 1.304688 34.03125 -1.546875 C 26.65625 -4.398438 20.269531 -8.382812 14.875 -13.5 C 9.476562 -18.625 5.253906 -24.71875 2.203125 -31.78125 C -0.847656 -38.84375 -2.375 -46.695312 -2.375 -55.34375 C -2.375 -63.75 -0.96875 -71.503906 1.84375 -78.609375 C 4.65625 -85.710938 8.617188 -91.863281 13.734375 -97.0625 C 18.859375 -102.257812 24.988281 -106.304688 32.125 -109.203125 C 39.269531 -112.097656 47.164062 -113.546875 55.8125 -113.546875 C 64.78125 -113.546875 72.914062 -112.015625 80.21875 -108.953125 C 87.519531 -105.898438 93.769531 -101.476562 98.96875 -95.6875 C 104.164062 -89.894531 108.226562 -82.8125 111.15625 -74.4375 C 114.09375 -66.070312 115.5625 -56.613281 115.5625 -46.0625 Z M 87.71875 -67.71875 C 86.445312 -74.863281 82.753906 -80.597656 76.640625 -84.921875 C 70.535156 -89.242188 63.59375 -91.40625 55.8125 -91.40625 C 48.039062 -91.40625 41.0625 -89.242188 34.875 -84.921875 C 28.6875 -80.597656 24.957031 -74.863281 23.6875 -67.71875 Z M 87.71875 -67.71875 "/></g></g><g style="fill:rgb(100%,39.99939%,76.858521%);fill-opacity:1;"><g transform="translate(574.400063, 509.011332)"><path style="stroke:none;" d="M 93.3125 0 L 18.8125 0 L 18.8125 -22.140625 L 43.078125 -22.140625 L 43.078125 -133.0625 L 18.8125 -133.0625 L 18.8125 -155.3125 L 67.71875 -155.3125 L 67.71875 -22.140625 L 93.3125 -22.140625 Z M 93.3125 0 "/></g></g><g style="fill:rgb(100%,39.99939%,76.858521%);fill-opacity:1;"><g transform="translate(718.923163, 509.011332)"><path style="stroke:none;" d="M 93.3125 0 L 18.8125 0 L 18.8125 -22.140625 L 43.078125 -22.140625 L 43.078125 -133.0625 L 18.8125 -133.0625 L 18.8125 -155.3125 L 67.71875 -155.3125 L 67.71875 -22.140625 L 93.3125 -22.140625 Z M 93.3125 0 "/></g></g><g style="fill:rgb(100%,39.99939%,76.858521%);fill-opacity:1;"><g transform="translate(863.446222, 509.011332)"><path style="stroke:none;" d="M 113.78125 -55.34375 C 113.78125 -46.695312 112.410156 -38.84375 109.671875 -31.78125 C 106.929688 -24.71875 103.003906 -18.625 97.890625 -13.5 C 92.773438 -8.382812 86.644531 -4.398438 79.5 -1.546875 C 72.363281 1.304688 64.390625 2.734375 55.578125 2.734375 C 46.929688 2.734375 39.035156 1.304688 31.890625 -1.546875 C 24.753906 -4.398438 18.625 -8.382812 13.5 -13.5 C 8.382812 -18.625 4.457031 -24.71875 1.71875 -31.78125 C -1.007812 -38.84375 -2.375 -46.695312 -2.375 -55.34375 C -2.375 -63.75 -1.007812 -71.539062 1.71875 -78.71875 C 4.457031 -85.90625 8.382812 -92.097656 13.5 -97.296875 C 18.625 -102.492188 24.753906 -106.5 31.890625 -109.3125 C 39.035156 -112.132812 46.929688 -113.546875 55.578125 -113.546875 C 64.390625 -113.546875 72.363281 -112.132812 79.5 -109.3125 C 86.644531 -106.5 92.773438 -102.492188 97.890625 -97.296875 C 103.003906 -92.097656 106.929688 -85.90625 109.671875 -78.71875 C 112.410156 -71.539062 113.78125 -63.75 113.78125 -55.34375 Z M 89.265625 -55.34375 C 89.265625 -60.34375 88.488281 -65.082031 86.9375 -69.5625 C 85.394531 -74.050781 83.15625 -77.878906 80.21875 -81.046875 C 77.28125 -84.222656 73.726562 -86.742188 69.5625 -88.609375 C 65.394531 -90.472656 60.734375 -91.40625 55.578125 -91.40625 C 50.335938 -91.40625 45.65625 -90.472656 41.53125 -88.609375 C 37.40625 -86.742188 33.914062 -84.222656 31.0625 -81.046875 C 28.207031 -77.878906 26.003906 -74.050781 24.453125 -69.5625 C 22.910156 -65.082031 22.140625 -60.34375 22.140625 -55.34375 C 22.140625 -50.101562 22.910156 -45.34375 24.453125 -41.0625 C 26.003906 -36.78125 28.207031 -33.007812 31.0625 -29.75 C 33.914062 -26.5 37.40625 -23.976562 41.53125 -22.1875 C 45.65625 -20.40625 50.335938 -19.515625 55.578125 -19.515625 C 60.734375 -19.515625 65.394531 -20.40625 69.5625 -22.1875 C 73.726562 -23.976562 77.28125 -26.5 80.21875 -29.75 C 83.15625 -33.007812 85.394531 -36.78125 86.9375 -41.0625 C 88.488281 -45.34375 89.265625 -50.101562 89.265625 -55.34375 Z M 89.265625 -55.34375 "/></g></g><g style="fill:rgb(100%,39.99939%,76.858521%);fill-opacity:1;"><g transform="translate(1007.969282, 509.011332)"><path style="stroke:none;" d="M 76.296875 -22.25 L 43.6875 44.28125 L 24.875 44.28125 L 47.015625 -22.25 Z M 76.296875 -22.25 "/></g></g><g style="fill:rgb(100%,39.99939%,76.858521%);fill-opacity:1;"><g transform="translate(1152.492341, 509.011332)"><path style="stroke:none;" d=""/></g></g><g style="fill:rgb(100%,39.99939%,76.858521%);fill-opacity:1;"><g transform="translate(1297.0154, 509.011332)"><path style="stroke:none;" d="M 116.046875 -77.71875 C 116.046875 -67.320312 114.953125 -57.421875 112.765625 -48.015625 C 110.585938 -38.617188 107.097656 -30.367188 102.296875 -23.265625 C 97.492188 -16.160156 91.300781 -10.503906 83.71875 -6.296875 C 76.144531 -2.097656 67.003906 0 56.296875 0 L 5.828125 0 L 5.828125 -155.3125 L 56.296875 -155.3125 C 66.847656 -155.3125 75.910156 -153.1875 83.484375 -148.9375 C 91.066406 -144.695312 97.257812 -139.046875 102.0625 -131.984375 C 106.863281 -124.929688 110.394531 -116.722656 112.65625 -107.359375 C 114.914062 -97.992188 116.046875 -88.113281 116.046875 -77.71875 Z M 91.40625 -77.71875 C 91.40625 -95.65625 88.347656 -109.363281 82.234375 -118.84375 C 76.128906 -128.320312 67.484375 -133.0625 56.296875 -133.0625 L 30.46875 -133.0625 L 30.46875 -22.140625 L 56.296875 -22.140625 C 67.484375 -22.140625 76.128906 -26.976562 82.234375 -36.65625 C 88.347656 -46.332031 91.40625 -60.019531 91.40625 -77.71875 Z M 91.40625 -77.71875 "/></g></g><g style="fill:rgb(100%,39.99939%,76.858521%);fill-opacity:1;"><g transform="translate(1441.53846, 509.011332)"><path style="stroke:none;" d="M 22.609375 -46.0625 C 23.804688 -38.445312 27.4375 -32.117188 33.5 -27.078125 C 39.570312 -22.035156 47.726562 -19.515625 57.96875 -19.515625 C 65.976562 -19.515625 72.9375 -20.765625 78.84375 -23.265625 C 84.757812 -25.765625 89.859375 -29.078125 94.140625 -33.203125 L 106.765625 -15.828125 C 99.617188 -8.691406 92.054688 -3.8125 84.078125 -1.1875 C 76.109375 1.425781 67.40625 2.734375 57.96875 2.734375 C 49.394531 2.734375 41.414062 1.304688 34.03125 -1.546875 C 26.65625 -4.398438 20.269531 -8.382812 14.875 -13.5 C 9.476562 -18.625 5.253906 -24.71875 2.203125 -31.78125 C -0.847656 -38.84375 -2.375 -46.695312 -2.375 -55.34375 C -2.375 -63.75 -0.96875 -71.503906 1.84375 -78.609375 C 4.65625 -85.710938 8.617188 -91.863281 13.734375 -97.0625 C 18.859375 -102.257812 24.988281 -106.304688 32.125 -109.203125 C 39.269531 -112.097656 47.164062 -113.546875 55.8125 -113.546875 C 64.78125 -113.546875 72.914062 -112.015625 80.21875 -108.953125 C 87.519531 -105.898438 93.769531 -101.476562 98.96875 -95.6875 C 104.164062 -89.894531 108.226562 -82.8125 111.15625 -74.4375 C 114.09375 -66.070312 115.5625 -56.613281 115.5625 -46.0625 Z M 87.71875 -67.71875 C 86.445312 -74.863281 82.753906 -80.597656 76.640625 -84.921875 C 70.535156 -89.242188 63.59375 -91.40625 55.8125 -91.40625 C 48.039062 -91.40625 41.0625 -89.242188 34.875 -84.921875 C 28.6875 -80.597656 24.957031 -74.863281 23.6875 -67.71875 Z M 87.71875 -67.71875 "/></g></g><g style="fill:rgb(100%,39.99939%,76.858521%);fill-opacity:1;"><g transform="translate(1586.061519, 509.011332)"><path style="stroke:none;" d="M 110.921875 -110.921875 L 69.984375 0 L 40.9375 0 L 0 -110.921875 L 26.296875 -110.921875 L 55.578125 -27.015625 L 84.625 -110.921875 Z M 110.921875 -110.921875 "/></g></g><g style="fill:rgb(100%,39.99939%,76.858521%);fill-opacity:1;"><g transform="translate(1730.58466, 509.011332)"><path style="stroke:none;" d="M 22.609375 -46.0625 C 23.804688 -38.445312 27.4375 -32.117188 33.5 -27.078125 C 39.570312 -22.035156 47.726562 -19.515625 57.96875 -19.515625 C 65.976562 -19.515625 72.9375 -20.765625 78.84375 -23.265625 C 84.757812 -25.765625 89.859375 -29.078125 94.140625 -33.203125 L 106.765625 -15.828125 C 99.617188 -8.691406 92.054688 -3.8125 84.078125 -1.1875 C 76.109375 1.425781 67.40625 2.734375 57.96875 2.734375 C 49.394531 2.734375 41.414062 1.304688 34.03125 -1.546875 C 26.65625 -4.398438 20.269531 -8.382812 14.875 -13.5 C 9.476562 -18.625 5.253906 -24.71875 2.203125 -31.78125 C -0.847656 -38.84375 -2.375 -46.695312 -2.375 -55.34375 C -2.375 -63.75 -0.96875 -71.503906 1.84375 -78.609375 C 4.65625 -85.710938 8.617188 -91.863281 13.734375 -97.0625 C 18.859375 -102.257812 24.988281 -106.304688 32.125 -109.203125 C 39.269531 -112.097656 47.164062 -113.546875 55.8125 -113.546875 C 64.78125 -113.546875 72.914062 -112.015625 80.21875 -108.953125 C 87.519531 -105.898438 93.769531 -101.476562 98.96875 -95.6875 C 104.164062 -89.894531 108.226562 -82.8125 111.15625 -74.4375 C 114.09375 -66.070312 115.5625 -56.613281 115.5625 -46.0625 Z M 87.71875 -67.71875 C 86.445312 -74.863281 82.753906 -80.597656 76.640625 -84.921875 C 70.535156 -89.242188 63.59375 -91.40625 55.8125 -91.40625 C 48.039062 -91.40625 41.0625 -89.242188 34.875 -84.921875 C 28.6875 -80.597656 24.957031 -74.863281 23.6875 -67.71875 Z M 87.71875 -67.71875 "/></g></g><g style="fill:rgb(100%,39.99939%,76.858521%);fill-opacity:1;"><g transform="translate(1875.107719, 509.011332)"><path style="stroke:none;" d="M 93.3125 0 L 18.8125 0 L 18.8125 -22.140625 L 43.078125 -22.140625 L 43.078125 -133.0625 L 18.8125 -133.0625 L 18.8125 -155.3125 L 67.71875 -155.3125 L 67.71875 -22.140625 L 93.3125 -22.140625 Z M 93.3125 0 "/></g></g><g style="fill:rgb(100%,39.99939%,76.858521%);fill-opacity:1;"><g transform="translate(2019.630778, 509.011332)"><path style="stroke:none;" d="M 113.78125 -55.34375 C 113.78125 -46.695312 112.410156 -38.84375 109.671875 -31.78125 C 106.929688 -24.71875 103.003906 -18.625 97.890625 -13.5 C 92.773438 -8.382812 86.644531 -4.398438 79.5 -1.546875 C 72.363281 1.304688 64.390625 2.734375 55.578125 2.734375 C 46.929688 2.734375 39.035156 1.304688 31.890625 -1.546875 C 24.753906 -4.398438 18.625 -8.382812 13.5 -13.5 C 8.382812 -18.625 4.457031 -24.71875 1.71875 -31.78125 C -1.007812 -38.84375 -2.375 -46.695312 -2.375 -55.34375 C -2.375 -63.75 -1.007812 -71.539062 1.71875 -78.71875 C 4.457031 -85.90625 8.382812 -92.097656 13.5 -97.296875 C 18.625 -102.492188 24.753906 -106.5 31.890625 -109.3125 C 39.035156 -112.132812 46.929688 -113.546875 55.578125 -113.546875 C 64.390625 -113.546875 72.363281 -112.132812 79.5 -109.3125 C 86.644531 -106.5 92.773438 -102.492188 97.890625 -97.296875 C 103.003906 -92.097656 106.929688 -85.90625 109.671875 -78.71875 C 112.410156 -71.539062 113.78125 -63.75 113.78125 -55.34375 Z M 89.265625 -55.34375 C 89.265625 -60.34375 88.488281 -65.082031 86.9375 -69.5625 C 85.394531 -74.050781 83.15625 -77.878906 80.21875 -81.046875 C 77.28125 -84.222656 73.726562 -86.742188 69.5625 -88.609375 C 65.394531 -90.472656 60.734375 -91.40625 55.578125 -91.40625 C 50.335938 -91.40625 45.65625 -90.472656 41.53125 -88.609375 C 37.40625 -86.742188 33.914062 -84.222656 31.0625 -81.046875 C 28.207031 -77.878906 26.003906 -74.050781 24.453125 -69.5625 C 22.910156 -65.082031 22.140625 -60.34375 22.140625 -55.34375 C 22.140625 -50.101562 22.910156 -45.34375 24.453125 -41.0625 C 26.003906 -36.78125 28.207031 -33.007812 31.0625 -29.75 C 33.914062 -26.5 37.40625 -23.976562 41.53125 -22.1875 C 45.65625 -20.40625 50.335938 -19.515625 55.578125 -19.515625 C 60.734375 -19.515625 65.394531 -20.40625 69.5625 -22.1875 C 73.726562 -23.976562 77.28125 -26.5 80.21875 -29.75 C 83.15625 -33.007812 85.394531 -36.78125 86.9375 -41.0625 C 88.488281 -45.34375 89.265625 -50.101562 89.265625 -55.34375 Z M 89.265625 -55.34375 "/></g></g><g style="fill:rgb(100%,39.99939%,76.858521%);fill-opacity:1;"><g transform="translate(2164.153838, 509.011332)"><path style="stroke:none;" d="M 5.828125 -110.921875 L 30.46875 -110.921875 L 30.46875 -100.921875 C 35.144531 -105.128906 39.882812 -108.285156 44.6875 -110.390625 C 49.488281 -112.492188 54.984375 -113.546875 61.171875 -113.546875 C 68.316406 -113.546875 74.941406 -112.097656 81.046875 -109.203125 C 87.160156 -106.304688 92.398438 -102.296875 96.765625 -97.171875 C 101.128906 -92.054688 104.578125 -85.90625 107.109375 -78.71875 C 109.648438 -71.539062 110.921875 -63.75 110.921875 -55.34375 C 110.921875 -46.851562 109.648438 -39.035156 107.109375 -31.890625 C 104.578125 -24.753906 101.128906 -18.625 96.765625 -13.5 C 92.398438 -8.382812 87.160156 -4.398438 81.046875 -1.546875 C 74.941406 1.304688 68.316406 2.734375 61.171875 2.734375 C 54.984375 2.734375 49.488281 1.625 44.6875 -0.59375 C 39.882812 -2.8125 35.144531 -6.023438 30.46875 -10.234375 L 30.46875 44.390625 L 5.828125 44.390625 Z M 30.46875 -29.75 C 33.40625 -26.5 37.15625 -23.976562 41.71875 -22.1875 C 46.28125 -20.40625 50.664062 -19.515625 54.875 -19.515625 C 64.15625 -19.515625 71.707031 -22.804688 77.53125 -29.390625 C 83.363281 -35.984375 86.28125 -44.632812 86.28125 -55.34375 C 86.28125 -66.050781 83.363281 -74.738281 77.53125 -81.40625 C 71.707031 -88.070312 64.15625 -91.40625 54.875 -91.40625 C 50.664062 -91.40625 46.28125 -90.550781 41.71875 -88.84375 C 37.15625 -87.132812 33.40625 -84.65625 30.46875 -81.40625 Z M 30.46875 -29.75 "/></g></g><g style="fill:rgb(100%,39.99939%,76.858521%);fill-opacity:1;"><g transform="translate(2308.676897, 509.011332)"><path style="stroke:none;" d="M 22.609375 -46.0625 C 23.804688 -38.445312 27.4375 -32.117188 33.5 -27.078125 C 39.570312 -22.035156 47.726562 -19.515625 57.96875 -19.515625 C 65.976562 -19.515625 72.9375 -20.765625 78.84375 -23.265625 C 84.757812 -25.765625 89.859375 -29.078125 94.140625 -33.203125 L 106.765625 -15.828125 C 99.617188 -8.691406 92.054688 -3.8125 84.078125 -1.1875 C 76.109375 1.425781 67.40625 2.734375 57.96875 2.734375 C 49.394531 2.734375 41.414062 1.304688 34.03125 -1.546875 C 26.65625 -4.398438 20.269531 -8.382812 14.875 -13.5 C 9.476562 -18.625 5.253906 -24.71875 2.203125 -31.78125 C -0.847656 -38.84375 -2.375 -46.695312 -2.375 -55.34375 C -2.375 -63.75 -0.96875 -71.503906 1.84375 -78.609375 C 4.65625 -85.710938 8.617188 -91.863281 13.734375 -97.0625 C 18.859375 -102.257812 24.988281 -106.304688 32.125 -109.203125 C 39.269531 -112.097656 47.164062 -113.546875 55.8125 -113.546875 C 64.78125 -113.546875 72.914062 -112.015625 80.21875 -108.953125 C 87.519531 -105.898438 93.769531 -101.476562 98.96875 -95.6875 C 104.164062 -89.894531 108.226562 -82.8125 111.15625 -74.4375 C 114.09375 -66.070312 115.5625 -56.613281 115.5625 -46.0625 Z M 87.71875 -67.71875 C 86.445312 -74.863281 82.753906 -80.597656 76.640625 -84.921875 C 70.535156 -89.242188 63.59375 -91.40625 55.8125 -91.40625 C 48.039062 -91.40625 41.0625 -89.242188 34.875 -84.921875 C 28.6875 -80.597656 24.957031 -74.863281 23.6875 -67.71875 Z M 87.71875 -67.71875 "/></g></g><g style="fill:rgb(100%,39.99939%,76.858521%);fill-opacity:1;"><g transform="translate(2453.199957, 509.011332)"><path style="stroke:none;" d="M 108.1875 -84.625 C 105.25 -86.050781 102.253906 -87.140625 99.203125 -87.890625 C 96.148438 -88.648438 92.640625 -89.03125 88.671875 -89.03125 C 83.191406 -89.03125 78.050781 -88.210938 73.25 -86.578125 C 68.457031 -84.953125 64.3125 -82.515625 60.8125 -79.265625 C 57.320312 -76.015625 54.601562 -71.945312 52.65625 -67.0625 C 50.71875 -62.1875 49.75 -56.414062 49.75 -49.75 L 49.75 -22.140625 L 74.625 -22.140625 L 74.625 0 L 0 0 L 0 -22.140625 L 25.109375 -22.140625 L 25.109375 -88.671875 L 0 -88.671875 L 0 -110.921875 L 49.75 -110.921875 L 49.75 -83.078125 C 53.789062 -94.179688 59.757812 -102.035156 67.65625 -106.640625 C 75.550781 -111.242188 84.9375 -113.546875 95.8125 -113.546875 C 99.21875 -113.546875 102.785156 -113.1875 106.515625 -112.46875 C 110.242188 -111.757812 113.894531 -110.488281 117.46875 -108.65625 Z M 108.1875 -84.625 "/></g></g><g style="fill:rgb(100%,39.99939%,76.858521%);fill-opacity:1;"><g transform="translate(2597.723016, 509.011332)"><path style="stroke:none;" d="M 107.953125 -33.203125 C 107.953125 -25.984375 106.320312 -20.113281 103.0625 -15.59375 C 99.8125 -11.070312 95.628906 -7.421875 90.515625 -4.640625 C 85.398438 -1.859375 79.6875 0.0625 73.375 1.125 C 67.0625 2.195312 60.894531 2.734375 54.875 2.734375 C 44.789062 2.734375 34.75 1.269531 24.75 -1.65625 C 14.757812 -4.59375 6.113281 -8.445312 -1.1875 -13.21875 L 9.046875 -33.4375 C 17.773438 -28.363281 25.769531 -24.773438 33.03125 -22.671875 C 40.289062 -20.566406 47.570312 -19.515625 54.875 -19.515625 C 64.789062 -19.515625 72.007812 -20.566406 76.53125 -22.671875 C 81.050781 -24.773438 83.3125 -27.691406 83.3125 -31.421875 C 83.3125 -33.242188 82.675781 -34.75 81.40625 -35.9375 C 80.132812 -37.132812 78.03125 -38.226562 75.09375 -39.21875 C 72.164062 -40.207031 68.300781 -41.195312 63.5 -42.1875 C 58.695312 -43.1875 52.722656 -44.238281 45.578125 -45.34375 C 39.867188 -46.300781 34.453125 -47.472656 29.328125 -48.859375 C 24.210938 -50.242188 19.710938 -52.207031 15.828125 -54.75 C 11.941406 -57.289062 8.828125 -60.503906 6.484375 -64.390625 C 4.140625 -68.273438 2.96875 -73.15625 2.96875 -79.03125 C 2.96875 -84.976562 4.492188 -90.15625 7.546875 -94.5625 C 10.609375 -98.96875 14.617188 -102.597656 19.578125 -105.453125 C 24.535156 -108.304688 30.109375 -110.367188 36.296875 -111.640625 C 42.484375 -112.910156 48.675781 -113.546875 54.875 -113.546875 C 63.59375 -113.546875 72.054688 -112.414062 80.265625 -110.15625 C 88.484375 -107.894531 95.6875 -104.660156 101.875 -100.453125 L 92.125 -81.40625 C 85.9375 -85.289062 79.925781 -87.925781 74.09375 -89.3125 C 68.257812 -90.707031 61.851562 -91.40625 54.875 -91.40625 C 51.9375 -91.40625 48.878906 -91.242188 45.703125 -90.921875 C 42.523438 -90.609375 39.585938 -89.992188 36.890625 -89.078125 C 34.191406 -88.171875 31.953125 -86.941406 30.171875 -85.390625 C 28.390625 -83.847656 27.5 -81.96875 27.5 -79.75 C 27.5 -76.8125 30.09375 -74.410156 35.28125 -72.546875 C 40.476562 -70.679688 49.347656 -68.832031 61.890625 -67 C 68.710938 -66.050781 74.941406 -64.84375 80.578125 -63.375 C 86.210938 -61.90625 91.050781 -59.921875 95.09375 -57.421875 C 99.144531 -54.921875 102.300781 -51.707031 104.5625 -47.78125 C 106.820312 -43.851562 107.953125 -38.992188 107.953125 -33.203125 Z M 107.953125 -33.203125 "/></g></g><g style="fill:rgb(100%,39.99939%,76.858521%);fill-opacity:1;"><g transform="translate(2742.246075, 509.011332)"><path style="stroke:none;" d="M 71.65625 -155.3125 L 65.578125 -44.390625 L 45.34375 -44.390625 L 39.28125 -155.3125 Z M 70.453125 0 L 40.46875 0 L 40.46875 -30 L 70.453125 -30 Z M 70.453125 0 "/></g></g><g style="fill:rgb(100%,39.99939%,76.858521%);fill-opacity:1;"><g transform="translate(2886.769135, 509.011332)"><path style="stroke:none;" d=""/></g></g><g style="fill:rgb(100%,39.99939%,76.858521%);fill-opacity:1;"><g transform="translate(3031.292194, 509.011332)"><path style="stroke:none;" d="M 93.078125 0 L 18.5625 0 L 18.5625 -22.140625 L 43.078125 -22.140625 L 43.078125 -133.0625 L 18.5625 -133.0625 L 18.5625 -155.3125 L 93.078125 -155.3125 L 93.078125 -133.0625 L 67.71875 -133.0625 L 67.71875 -22.140625 L 93.078125 -22.140625 Z M 93.078125 0 "/></g></g><g style="fill:rgb(100%,39.99939%,76.858521%);fill-opacity:1;"><g transform="translate(3175.815416, 509.011332)"><path style="stroke:none;" d="M 70.21875 -155.3125 L 64.859375 -95.8125 L 46.0625 -95.8125 L 40.703125 -155.3125 Z M 70.21875 -155.3125 "/></g></g><g style="fill:rgb(100%,39.99939%,76.858521%);fill-opacity:1;"><g transform="translate(3320.338475, 509.011332)"><path style="stroke:none;" d="M 110.921875 0 L 86.28125 0 L 86.28125 -76.046875 C 86.28125 -81.285156 85.742188 -85.15625 84.671875 -87.65625 C 83.609375 -90.15625 81.726562 -91.40625 79.03125 -91.40625 C 74.113281 -91.40625 71 -88.644531 69.6875 -83.125 C 68.375 -77.613281 67.71875 -69.582031 67.71875 -59.03125 L 67.71875 0 L 43.078125 0 L 43.078125 -76.046875 C 43.078125 -81.285156 42.519531 -85.15625 41.40625 -87.65625 C 40.300781 -90.15625 38.363281 -91.40625 35.59375 -91.40625 C 30.75 -91.40625 27.710938 -88.644531 26.484375 -83.125 C 25.253906 -77.613281 24.640625 -69.582031 24.640625 -59.03125 L 24.640625 0 L 0 0 L 0 -110.921875 L 24.875 -110.921875 L 24.875 -94.859375 C 26.625 -100.960938 29.203125 -105.601562 32.609375 -108.78125 C 36.023438 -111.957031 40.585938 -113.546875 46.296875 -113.546875 C 51.054688 -113.546875 55.039062 -112.097656 58.25 -109.203125 C 61.46875 -106.304688 63.671875 -102.316406 64.859375 -97.234375 C 67.640625 -102.785156 70.515625 -106.890625 73.484375 -109.546875 C 76.460938 -112.210938 81.046875 -113.546875 87.234375 -113.546875 C 94.859375 -113.546875 100.710938 -110.75 104.796875 -105.15625 C 108.878906 -99.5625 110.921875 -91.09375 110.921875 -79.75 Z M 110.921875 0 "/></g></g><g style="fill:rgb(100%,39.99939%,76.858521%);fill-opacity:1;"><g transform="translate(3464.861534, 509.011332)"><path style="stroke:none;" d=""/></g></g><g style="fill:rgb(100%,39.99939%,76.858521%);fill-opacity:1;"><g transform="translate(3609.384594, 509.011332)"><path style="stroke:none;" d="M 105.09375 0 L 80.453125 0 L 80.453125 -105.09375 L 64.859375 -49.28125 L 45.828125 -49.28125 L 30.46875 -105.09375 L 30.46875 0 L 5.828125 0 L 5.828125 -155.3125 L 35.109375 -155.3125 L 55.34375 -85.09375 L 75.578125 -155.3125 L 105.09375 -155.3125 Z M 105.09375 0 "/></g></g><g style="fill:rgb(100%,39.99939%,76.858521%);fill-opacity:1;"><g transform="translate(3753.907653, 509.011332)"><path style="stroke:none;" d="M 5.828125 -110.921875 L 30.46875 -110.921875 L 30.46875 -42.375 C 30.46875 -33.800781 32.09375 -27.847656 35.34375 -24.515625 C 38.601562 -21.179688 43.328125 -19.515625 49.515625 -19.515625 C 58.554688 -19.515625 65.972656 -23.203125 71.765625 -30.578125 C 77.554688 -37.960938 80.453125 -48.160156 80.453125 -61.171875 L 80.453125 -110.921875 L 105.09375 -110.921875 L 105.09375 0 L 80.453125 0 L 80.453125 -27.734375 C 77.992188 -18.210938 73.429688 -10.753906 66.765625 -5.359375 C 60.097656 0.0351562 51.882812 2.734375 42.125 2.734375 C 30.78125 2.734375 21.894531 -0.972656 15.46875 -8.390625 C 9.039062 -15.804688 5.828125 -27.132812 5.828125 -42.375 Z M 5.828125 -110.921875 "/></g></g><g style="fill:rgb(100%,39.99939%,76.858521%);fill-opacity:1;"><g transform="translate(3898.430713, 509.011332)"><path style="stroke:none;" d="M 105.09375 0 L 5.828125 0 L 5.828125 -21.90625 L 69.03125 -88.671875 L 27.5 -88.671875 L 27.5 -66.296875 L 5.828125 -66.296875 L 5.828125 -110.921875 L 102.828125 -110.921875 L 102.828125 -88.671875 L 39.515625 -22.140625 L 83.3125 -22.140625 L 83.3125 -44.15625 L 105.09375 -44.15625 Z M 105.09375 0 "/></g></g><g style="fill:rgb(100%,39.99939%,76.858521%);fill-opacity:1;"><g transform="translate(4042.953772, 509.011332)"><path style="stroke:none;" d="M -0.46875 -31.890625 C -0.46875 -38.398438 1.273438 -44.09375 4.765625 -48.96875 C 8.253906 -53.851562 12.832031 -57.921875 18.5 -61.171875 C 24.175781 -64.429688 30.679688 -66.875 38.015625 -68.5 C 45.359375 -70.125 52.84375 -70.9375 60.46875 -70.9375 C 64.664062 -70.9375 68.269531 -70.851562 71.28125 -70.6875 C 74.300781 -70.53125 77.359375 -70.296875 80.453125 -69.984375 L 80.453125 -74.390625 C 80.453125 -80.179688 78.207031 -84.503906 73.71875 -87.359375 C 69.238281 -90.210938 63.351562 -91.640625 56.0625 -91.640625 C 49.394531 -91.640625 42.609375 -90.707031 35.703125 -88.84375 C 28.796875 -86.976562 22.25 -84.257812 16.0625 -80.6875 L 6.0625 -99.96875 C 13.363281 -104.175781 21.195312 -107.488281 29.5625 -109.90625 C 37.9375 -112.332031 46.769531 -113.546875 56.0625 -113.546875 C 62.09375 -113.546875 68.019531 -112.867188 73.84375 -111.515625 C 79.675781 -110.171875 84.914062 -107.953125 89.5625 -104.859375 C 94.207031 -101.765625 97.914062 -97.738281 100.6875 -92.78125 C 103.46875 -87.820312 104.859375 -81.691406 104.859375 -74.390625 L 104.859375 0 L 80.453125 0 L 80.453125 -16.3125 C 76.566406 -10.28125 70.832031 -5.597656 63.25 -2.265625 C 55.675781 1.066406 47.523438 2.734375 38.796875 2.734375 C 33.398438 2.734375 28.300781 2 23.5 0.53125 C 18.707031 -0.9375 14.5625 -3.132812 11.0625 -6.0625 C 7.570312 -9 4.773438 -12.628906 2.671875 -16.953125 C 0.578125 -21.285156 -0.46875 -26.265625 -0.46875 -31.890625 Z M 45.109375 -19.28125 C 49.953125 -19.28125 54.492188 -19.894531 58.734375 -21.125 C 62.984375 -22.351562 66.734375 -24.054688 69.984375 -26.234375 C 73.234375 -28.421875 75.789062 -31.0625 77.65625 -34.15625 C 79.519531 -37.25 80.453125 -40.660156 80.453125 -44.390625 L 80.453125 -48.5625 C 76.566406 -49.195312 72.914062 -49.550781 69.5 -49.625 C 66.09375 -49.707031 63.082031 -49.75 60.46875 -49.75 C 48.40625 -49.75 39.296875 -48.160156 33.140625 -44.984375 C 26.992188 -41.816406 23.921875 -37.890625 23.921875 -33.203125 C 23.921875 -23.921875 30.984375 -19.28125 45.109375 -19.28125 Z M 45.109375 -19.28125 "/></g></g><g style="fill:rgb(100%,39.99939%,76.858521%);fill-opacity:1;"><g transform="translate(4187.476831, 509.011332)"><path style="stroke:none;" d="M 110.921875 -88.671875 L 67.71875 -88.671875 L 67.71875 -22.140625 L 93.078125 -22.140625 L 93.078125 0 L 18.5625 0 L 18.5625 -22.140625 L 43.078125 -22.140625 L 43.078125 -88.671875 L 18.5625 -88.671875 L 18.5625 -110.921875 L 43.078125 -110.921875 C 43.078125 -126.160156 47.757812 -137.804688 57.125 -145.859375 C 66.488281 -153.910156 79.144531 -157.9375 95.09375 -157.9375 C 97.476562 -157.9375 100.019531 -157.816406 102.71875 -157.578125 C 105.414062 -157.335938 108.148438 -157.0625 110.921875 -156.75 L 110.921875 -135.09375 C 106.160156 -135.5625 101.835938 -135.796875 97.953125 -135.796875 C 91.609375 -135.796875 86.488281 -135.335938 82.59375 -134.421875 C 78.707031 -133.515625 75.671875 -132.050781 73.484375 -130.03125 C 71.304688 -128.007812 69.800781 -125.410156 68.96875 -122.234375 C 68.132812 -119.054688 67.71875 -115.285156 67.71875 -110.921875 L 110.921875 -110.921875 Z M 110.921875 -88.671875 "/></g></g><g style="fill:rgb(100%,39.99939%,76.858521%);fill-opacity:1;"><g transform="translate(4331.999891, 509.011332)"><path style="stroke:none;" d="M 110.921875 -88.671875 L 67.71875 -88.671875 L 67.71875 -22.140625 L 93.078125 -22.140625 L 93.078125 0 L 18.5625 0 L 18.5625 -22.140625 L 43.078125 -22.140625 L 43.078125 -88.671875 L 18.5625 -88.671875 L 18.5625 -110.921875 L 43.078125 -110.921875 C 43.078125 -126.160156 47.757812 -137.804688 57.125 -145.859375 C 66.488281 -153.910156 79.144531 -157.9375 95.09375 -157.9375 C 97.476562 -157.9375 100.019531 -157.816406 102.71875 -157.578125 C 105.414062 -157.335938 108.148438 -157.0625 110.921875 -156.75 L 110.921875 -135.09375 C 106.160156 -135.5625 101.835938 -135.796875 97.953125 -135.796875 C 91.609375 -135.796875 86.488281 -135.335938 82.59375 -134.421875 C 78.707031 -133.515625 75.671875 -132.050781 73.484375 -130.03125 C 71.304688 -128.007812 69.800781 -125.410156 68.96875 -122.234375 C 68.132812 -119.054688 67.71875 -115.285156 67.71875 -110.921875 L 110.921875 -110.921875 Z M 110.921875 -88.671875 "/></g></g><g style="fill:rgb(100%,39.99939%,76.858521%);fill-opacity:1;"><g transform="translate(4476.52295, 509.011332)"><path style="stroke:none;" d="M -0.46875 -31.890625 C -0.46875 -38.398438 1.273438 -44.09375 4.765625 -48.96875 C 8.253906 -53.851562 12.832031 -57.921875 18.5 -61.171875 C 24.175781 -64.429688 30.679688 -66.875 38.015625 -68.5 C 45.359375 -70.125 52.84375 -70.9375 60.46875 -70.9375 C 64.664062 -70.9375 68.269531 -70.851562 71.28125 -70.6875 C 74.300781 -70.53125 77.359375 -70.296875 80.453125 -69.984375 L 80.453125 -74.390625 C 80.453125 -80.179688 78.207031 -84.503906 73.71875 -87.359375 C 69.238281 -90.210938 63.351562 -91.640625 56.0625 -91.640625 C 49.394531 -91.640625 42.609375 -90.707031 35.703125 -88.84375 C 28.796875 -86.976562 22.25 -84.257812 16.0625 -80.6875 L 6.0625 -99.96875 C 13.363281 -104.175781 21.195312 -107.488281 29.5625 -109.90625 C 37.9375 -112.332031 46.769531 -113.546875 56.0625 -113.546875 C 62.09375 -113.546875 68.019531 -112.867188 73.84375 -111.515625 C 79.675781 -110.171875 84.914062 -107.953125 89.5625 -104.859375 C 94.207031 -101.765625 97.914062 -97.738281 100.6875 -92.78125 C 103.46875 -87.820312 104.859375 -81.691406 104.859375 -74.390625 L 104.859375 0 L 80.453125 0 L 80.453125 -16.3125 C 76.566406 -10.28125 70.832031 -5.597656 63.25 -2.265625 C 55.675781 1.066406 47.523438 2.734375 38.796875 2.734375 C 33.398438 2.734375 28.300781 2 23.5 0.53125 C 18.707031 -0.9375 14.5625 -3.132812 11.0625 -6.0625 C 7.570312 -9 4.773438 -12.628906 2.671875 -16.953125 C 0.578125 -21.285156 -0.46875 -26.265625 -0.46875 -31.890625 Z M 45.109375 -19.28125 C 49.953125 -19.28125 54.492188 -19.894531 58.734375 -21.125 C 62.984375 -22.351562 66.734375 -24.054688 69.984375 -26.234375 C 73.234375 -28.421875 75.789062 -31.0625 77.65625 -34.15625 C 79.519531 -37.25 80.453125 -40.660156 80.453125 -44.390625 L 80.453125 -48.5625 C 76.566406 -49.195312 72.914062 -49.550781 69.5 -49.625 C 66.09375 -49.707031 63.082031 -49.75 60.46875 -49.75 C 48.40625 -49.75 39.296875 -48.160156 33.140625 -44.984375 C 26.992188 -41.816406 23.921875 -37.890625 23.921875 -33.203125 C 23.921875 -23.921875 30.984375 -19.28125 45.109375 -19.28125 Z M 45.109375 -19.28125 "/></g></g><g style="fill:rgb(100%,39.99939%,76.858521%);fill-opacity:1;"><g transform="translate(4621.046009, 509.011332)"><path style="stroke:none;" d="M 108.1875 -84.625 C 105.25 -86.050781 102.253906 -87.140625 99.203125 -87.890625 C 96.148438 -88.648438 92.640625 -89.03125 88.671875 -89.03125 C 83.191406 -89.03125 78.050781 -88.210938 73.25 -86.578125 C 68.457031 -84.953125 64.3125 -82.515625 60.8125 -79.265625 C 57.320312 -76.015625 54.601562 -71.945312 52.65625 -67.0625 C 50.71875 -62.1875 49.75 -56.414062 49.75 -49.75 L 49.75 -22.140625 L 74.625 -22.140625 L 74.625 0 L 0 0 L 0 -22.140625 L 25.109375 -22.140625 L 25.109375 -88.671875 L 0 -88.671875 L 0 -110.921875 L 49.75 -110.921875 L 49.75 -83.078125 C 53.789062 -94.179688 59.757812 -102.035156 67.65625 -106.640625 C 75.550781 -111.242188 84.9375 -113.546875 95.8125 -113.546875 C 99.21875 -113.546875 102.785156 -113.1875 106.515625 -112.46875 C 110.242188 -111.757812 113.894531 -110.488281 117.46875 -108.65625 Z M 108.1875 -84.625 "/></g></g><g style="fill:rgb(100%,39.99939%,76.858521%);fill-opacity:1;"><g transform="translate(4765.569069, 509.011332)"><path style="stroke:none;" d="M 70.453125 0 L 40.46875 0 L 40.46875 -30 L 70.453125 -30 Z M 70.453125 0 "/></g></g></g></svg>